<svg id="LOGO" xmlns="http://www.w3.org/2000/svg" viewBox="0 0 500 140.20311"><defs><style>.cls-1{fill:#101010;}.cls-2{fill:#6aa1f4;}</style></defs><title>⬚² labs [squared labs]- WEB</title><g id="_squared_labs_" data-name="[squared labs]"><polygon class="cls-1" points="140.203 16.921 135.369 16.921 135.369 4.835 123.282 4.835 123.282 0 140.203 0 140.203 16.921"/><rect class="cls-1" x="52.37315" width="35.45445" height="4.83459"/><polygon class="cls-1" points="4.835 16.921 0 16.921 0 0 16.921 0 16.921 4.835 4.835 4.835 4.835 16.921"/><rect class="cls-1" y="52.37433" width="4.83459" height="35.45327"/><polygon class="cls-1" points="16.921 140.203 0 140.203 0 123.282 4.835 123.282 4.835 135.369 16.921 135.369 16.921 140.203"/><rect class="cls-1" x="52.37551" y="135.36852" width="35.45445" height="4.83459"/><polygon class="cls-1" points="140.203 140.203 123.282 140.203 123.282 135.369 135.369 135.369 135.369 123.282 140.203 123.282 140.203 140.203"/><rect class="cls-1" x="135.36852" y="52.37551" width="4.83459" height="35.45327"/><path class="cls-1" d="M185.75637,46.26618v5.6856h-23.0965V45.55562q0-4.975,2.84221-7.64021,2.84339-2.66457,8.529-3.96824,3.90568-.94544,4.79682-2.605a6.9616,6.9616,0,0,0,.89-3.3167,5.5815,5.5815,0,0,0-1.30307-3.613,5.04753,5.04753,0,0,0-4.14764-1.59933,5.72912,5.72912,0,0,0-4.32233,1.65835,6.55238,6.55238,0,0,0-1.60051,4.7378v2.13284h-6.395V29.20937a12.1786,12.1786,0,0,1,3.25532-8.52781q3.25768-3.55335,9.30092-3.55394a13.32254,13.32254,0,0,1,5.03288.88878,10.286,10.286,0,0,1,3.61178,2.3689A10.43961,10.43961,0,0,1,185.3409,23.82a10.72243,10.72243,0,0,1,.77193,3.96824,12.57877,12.57877,0,0,1-2.13166,7.34395q-2.13166,3.08063-7.81844,4.2645-4.26332.949-5.68442,2.3689a5.11667,5.11667,0,0,0-1.42111,3.79v.71055Z"/><path class="cls-1" d="M232.42622,91.01564h21.3213V25.15852H233.13677V16.63071H262.9847V91.01564H284.306v8.52781H232.42622Z"/><path class="cls-1" d="M344.77684,89.59336h-1.42111a19.24411,19.24411,0,0,1-7.87509,8.76505A21.24653,21.24653,0,0,1,324.879,101.2018a29.21638,29.21638,0,0,1-10.77868-1.95461,24.42768,24.42768,0,0,1-8.706-5.80363,27.41908,27.41908,0,0,1-5.86147-9.41659,35.97488,35.97488,0,0,1-2.134-12.91034V69.221a35.62185,35.62185,0,0,1,2.134-12.79231,27.45269,27.45269,0,0,1,5.86147-9.41659,25.17366,25.17366,0,0,1,8.706-5.86383,27.85607,27.85607,0,0,1,10.54262-2.01363,22.61719,22.61719,0,0,1,10.95573,2.66516,18.70511,18.70511,0,0,1,7.75706,8.23273h1.42111V40.793h9.23954V87.4617q0,3.55335,3.19867,3.55394h2.9626v8.52781h-6.2793a8.77243,8.77243,0,0,1-6.572-2.60615,9.08769,9.08769,0,0,1-2.54949-6.63222Zm-18.95122,2.84339a18.71736,18.71736,0,0,0,7.64139-1.54032,16.90709,16.90709,0,0,0,5.98186-4.38253,20.91555,20.91555,0,0,0,3.90686-6.81045,25.97912,25.97912,0,0,0,1.42111-8.82407V69.45828a25.62532,25.62532,0,0,0-1.42111-8.706,20.40587,20.40587,0,0,0-3.96587-6.81163,18.20732,18.20732,0,0,0-6.04324-4.44154,17.847,17.847,0,0,0-7.521-1.59815,18.33031,18.33031,0,0,0-7.58,1.53914,17.97688,17.97688,0,0,0-5.9795,4.32351,19.716,19.716,0,0,0-3.9706,6.75143,25.68312,25.68312,0,0,0-1.42111,8.706v1.89559q0,10.06872,5.27131,15.69353A17.88743,17.88743,0,0,0,325.82562,92.43675Z"/><path class="cls-1" d="M389.3739,99.54345h-9.23954V16.63071h9.23954V50.03258H390.795a20.333,20.333,0,0,1,8.52663-8.11352,25.67577,25.67577,0,0,1,11.84569-2.78437,26.67194,26.67194,0,0,1,10.30419,2.01363,25.86539,25.86539,0,0,1,8.588,5.80481,27.57874,27.57874,0,0,1,5.92284,9.35758A34.43339,34.43339,0,0,1,438.173,68.98379v2.3689A35.557,35.557,0,0,1,436.039,84.145a26.78162,26.78162,0,0,1-5.86147,9.35758,24.77678,24.77678,0,0,1-8.706,5.74462,28.56012,28.56012,0,0,1-10.54026,1.95461,27.00412,27.00412,0,0,1-5.80481-.65154,23.23186,23.23186,0,0,1-5.6254-2.01363,24.2915,24.2915,0,0,1-4.91721-3.3167,17.57147,17.57147,0,0,1-3.78883-4.67879H389.3739Zm19.65941-7.10671a20.09489,20.09489,0,0,0,7.81844-1.4813,18.55708,18.55708,0,0,0,6.21792-4.2043,18.90952,18.90952,0,0,0,4.14528-6.6334,24.58705,24.58705,0,0,0,1.48248-8.76505v-2.3689A23.76084,23.76084,0,0,0,427.215,60.397a19.67807,19.67807,0,0,0-4.14528-6.6334,18.80909,18.80909,0,0,0-6.27694-4.32351,19.60189,19.60189,0,0,0-7.75942-1.53914,18.54228,18.54228,0,0,0-7.698,1.59815,19.32361,19.32361,0,0,0-6.21792,4.44154,20.82991,20.82991,0,0,0-4.2043,6.81163,23.82162,23.82162,0,0,0-1.53914,8.706v1.42111a24.14741,24.14741,0,0,0,1.53914,8.82407,20.79973,20.79973,0,0,0,4.2043,6.81045,18.53358,18.53358,0,0,0,6.21792,4.38253A19.125,19.125,0,0,0,409.03331,92.43675Z"/><path class="cls-1" d="M462.09521,55.95424a7.21769,7.21769,0,0,0,3.61414,6.51537q3.61178,2.25028,13.20542,2.96142,10.30419.82858,15.69353,4.91485T500,82.25059v.71055a16.63566,16.63566,0,0,1-1.71855,7.639,17.04157,17.04157,0,0,1-4.74016,5.74462,21.23323,21.23323,0,0,1-7.34159,3.613,37.60276,37.60276,0,0,1-21.20327-.59252,24.40039,24.40039,0,0,1-8.17253-4.85584,20.21659,20.21659,0,0,1-4.91485-6.86946,23.002,23.002,0,0,1-1.89559-7.75824l8.76506-2.13284a15.69356,15.69356,0,0,0,5.21229,10.8377q4.61741,4.088,12.31782,4.08745,6.51537,0,10.48124-2.54713a8.05487,8.05487,0,0,0,3.9706-7.16572q0-4.975-3.90922-7.10671Q482.942,73.721,474.177,73.13026q-10.18734-.71173-15.63452-4.739-5.45308-4.0243-5.44836-11.7253v-.71173a14.527,14.527,0,0,1,1.7752-7.28375,16.13759,16.13759,0,0,1,4.79682-5.27131,22.06084,22.06084,0,0,1,6.81281-3.19749,29.15893,29.15893,0,0,1,7.93411-1.067A29.67181,29.67181,0,0,1,484.59919,40.734a23.50728,23.50728,0,0,1,7.34631,4.14646,18.04819,18.04819,0,0,1,4.5584,5.86265,22.67144,22.67144,0,0,1,2.07264,6.6334l-8.76506,2.13166a12.56113,12.56113,0,0,0-4.56076-8.88309q-3.96942-3.19926-10.36321-3.19867a21.27212,21.27212,0,0,0-4.79682.5335,14.04037,14.04037,0,0,0-4.08863,1.59815,8.83591,8.83591,0,0,0-2.84221,2.66516A6.58933,6.58933,0,0,0,462.09521,55.95424Z"/></g><g id="labs"><path class="cls-2" d="M232.42622,109.70689a2.13183,2.13183,0,0,1,2.22659-2.22659h2.88151v2.61951H235.7661q-.58938,0-.58929.65492v15.54215q0,.65483.58929.65492h1.76821v2.61951h-2.88151a2.13183,2.13183,0,0,1-2.22659-2.22659Z"/><path class="cls-2" d="M245.78558,118.39489a.779.779,0,0,0,.54582.753,8.01819,8.01819,0,0,0,1.98641.38209,5.1853,5.1853,0,0,1,2.70678.9932,2.73117,2.73117,0,0,1,1.04784,2.28105v.13109a3.15091,3.15091,0,0,1-1.17875,2.5757,5.1191,5.1191,0,0,1-3.31807.96056,6.31033,6.31033,0,0,1-2.16113-.32746,4.95733,4.95733,0,0,1-1.48422-.81865,3.62244,3.62244,0,0,1-.90593-1.09148,4.20966,4.20966,0,0,1-.42573-1.16776l2.53223-.82947a2.47965,2.47965,0,0,0,.7312,1.22239,2.42664,2.42664,0,0,0,1.71358.52383,2.28676,2.28676,0,0,0,1.40794-.31646.89758.89758,0,0,0,.38209-.68756.8515.8515,0,0,0-.09827-.40391.97829.97829,0,0,0-.3601-.34928,2.46115,2.46115,0,0,0-.70955-.27283,8.21682,8.21682,0,0,0-1.12412-.17455,5.61913,5.61913,0,0,1-2.91415-.94956,2.73146,2.73146,0,0,1-1.08065-2.34668v-.13092a2.80932,2.80932,0,0,1,.34928-1.41894,3.37336,3.37336,0,0,1,.91692-1.03684,4.07641,4.07641,0,0,1,1.30967-.6441,5.39919,5.39919,0,0,1,1.528-.21819,5.64706,5.64706,0,0,1,1.779.251,4.30442,4.30442,0,0,1,1.277.65492,3.789,3.789,0,0,1,.85129.89493,4.82984,4.82984,0,0,1,.50219.94956l-2.48859,1.0042a1.79565,1.79565,0,0,0-.67674-.92775,2.11475,2.11475,0,0,0-1.24421-.33846,1.79547,1.79547,0,0,0-1.04784.25118A.74426.74426,0,0,0,245.78558,118.39489Z"/><path class="cls-2" d="M263.46721,124.59429h-.39292a4.18,4.18,0,0,1-.42573.70938,2.48824,2.48824,0,0,1-.65492.60029,3.41579,3.41579,0,0,1-.96039.41474,5.13368,5.13368,0,0,1-1.34248.15291,4.791,4.791,0,0,1-1.86632-.36027,4.1937,4.1937,0,0,1-1.50621-1.06948,5.01362,5.01362,0,0,1-1.0042-1.7354,7.10066,7.10066,0,0,1-.3601-2.35768v-.39292a6.66193,6.66193,0,0,1,.38192-2.33569,5.09657,5.09657,0,0,1,1.04784-1.7354,4.49072,4.49072,0,0,1,1.54985-1.08048,4.77563,4.77563,0,0,1,1.86631-.3711,3.80307,3.80307,0,0,1,2.07386.49119,3.35084,3.35084,0,0,1,1.20057,1.38612h.39292v-1.57167h2.75042v15.19287h-2.75042Zm-2.88151-.7422a2.77873,2.77873,0,0,0,2.08468-.81865,2.95165,2.95165,0,0,0,.79683-2.15014v-.26183a2.95289,2.95289,0,0,0-.79683-2.15031,2.77925,2.77925,0,0,0-2.08468-.81848,2.81908,2.81908,0,0,0-2.08468.79666,2.93448,2.93448,0,0,0-.79666,2.17213v.26183a2.93353,2.93353,0,0,0,.79666,2.172A2.81785,2.81785,0,0,0,260.58571,123.8521Z"/><path class="cls-2" d="M276.39,115.33883h2.75042V126.166H276.39v-1.57167h-.39292a2.96387,2.96387,0,0,1-3.09987,1.87731,4.25119,4.25119,0,0,1-1.506-.262,3.26137,3.26137,0,0,1-1.22256-.80765,3.79042,3.79042,0,0,1-.81848-1.3643,5.70454,5.70454,0,0,1-.29482-1.93194v-6.76687h2.75059v6.1994a2.70147,2.70147,0,0,0,.54565,1.80086,2.02486,2.02486,0,0,0,1.63713.64392,2.1,2.1,0,0,0,1.82285-.79666,3.63065,3.63065,0,0,0,.57847-2.172Z"/><path class="cls-2" d="M289.42176,124.59429a2.82723,2.82723,0,0,1-1.22239,1.45158,3.79143,3.79143,0,0,1-1.83367.42573,4.61923,4.61923,0,0,1-1.84467-.3711,4.36255,4.36255,0,0,1-1.517-1.09148,5.31643,5.31643,0,0,1-1.03684-1.7464,6.65914,6.65914,0,0,1-.38209-2.33569v-.34928a6.7682,6.7682,0,0,1,.3711-2.31387,5.38552,5.38552,0,0,1,1.0042-1.74622,4.28021,4.28021,0,0,1,3.27426-1.48439,3.84342,3.84342,0,0,1,1.86649.39292,2.755,2.755,0,0,1,1.12412,1.22239h.39292v-1.30967h2.75042v7.55271q0,.65509.58946.65492h.41474V126.166h-1.87731a1.70657,1.70657,0,0,1-1.2114-.43656,1.47764,1.47764,0,0,1-.46937-1.13511Zm-2.445-.7422a2.46267,2.46267,0,0,0,1.92095-.79683,3.11714,3.11714,0,0,0,.72038-2.172v-.26183a3.11818,3.11818,0,0,0-.72038-2.17213,2.71428,2.71428,0,0,0-3.8419,0,3.119,3.119,0,0,0-.72038,2.17213v.26183a3.118,3.118,0,0,0,.72038,2.172A2.46267,2.46267,0,0,0,286.97681,123.8521Z"/><path class="cls-2" d="M295.25006,115.33883h4.58409v1.57167h.39292a2.6415,2.6415,0,0,1,1.03684-1.38612,3.07686,3.07686,0,0,1,1.75722-.49119,3.44979,3.44979,0,0,1,2.59769,1.015,4.28951,4.28951,0,0,1,.98238,3.08888v.48019l-2.83787.262v-.30564a2.12238,2.12238,0,0,0-.45838-1.42976,1.712,1.712,0,0,0-1.37513-.53483,1.76981,1.76981,0,0,0-1.44075.63293,2.77257,2.77257,0,0,0-.524,1.81185v3.49262h2.48859V126.166h-7.4656v-2.61951h2.22659v-5.58812h-1.96459Z"/><path class="cls-2" d="M311.5564,121.64733a2.11377,2.11377,0,0,0,.22919.88411,2.18325,2.18325,0,0,0,.56747.69856,2.70113,2.70113,0,0,0,.82965.45838,2.994,2.994,0,0,0,.9932.16373,2.856,2.856,0,0,0,1.57167-.3601,2.15655,2.15655,0,0,0,.78583-.86229l2.3575,1.30967a4.67119,4.67119,0,0,1-.54565.86229,3.82687,3.82687,0,0,1-.90593.81865,5.05815,5.05815,0,0,1-1.35348.61111,6.50029,6.50029,0,0,1-1.86632.24018,6.06335,6.06335,0,0,1-2.22659-.39292,4.92181,4.92181,0,0,1-1.7354-1.13511,5.10987,5.10987,0,0,1-1.13511-1.81185,6.81707,6.81707,0,0,1-.40391-2.423v-.13109a5.86954,5.86954,0,0,1,.42573-2.27023,5.14818,5.14818,0,0,1,1.16793-1.74622,5.36507,5.36507,0,0,1,1.7354-1.12429,5.59787,5.59787,0,0,1,2.12832-.40374,5.417,5.417,0,0,1,2.40114.49119,5.18159,5.18159,0,0,1,1.65895,1.24421,4.9022,4.9022,0,0,1,.96056,1.65895,5.48906,5.48906,0,0,1,.30564,1.75722v1.46257Zm2.59769-4.12572a2.60724,2.60724,0,0,0-1.70276.53483,2.44413,2.44413,0,0,0-.85129,1.23339H316.708a1.93939,1.93939,0,0,0-.81848-1.266A2.867,2.867,0,0,0,314.15409,117.52161Z"/><path class="cls-2" d="M330.26387,124.59429H329.871a4.18,4.18,0,0,1-.42573.70938,2.48824,2.48824,0,0,1-.65492.60029,3.41579,3.41579,0,0,1-.96039.41474,5.13368,5.13368,0,0,1-1.34248.15291,4.791,4.791,0,0,1-1.86632-.36027,4.1937,4.1937,0,0,1-1.50621-1.06948,5.01362,5.01362,0,0,1-1.0042-1.7354,7.10066,7.10066,0,0,1-.3601-2.35768v-.39292a6.66193,6.66193,0,0,1,.38192-2.33569,5.09657,5.09657,0,0,1,1.04784-1.7354,4.49072,4.49072,0,0,1,1.54985-1.08048,4.77563,4.77563,0,0,1,1.86632-.3711,3.80307,3.80307,0,0,1,2.07386.49119,3.35084,3.35084,0,0,1,1.20057,1.38612h.39292v-6.02485h2.75042V126.166h-2.75042Zm-2.88151-.7422a2.77873,2.77873,0,0,0,2.08468-.81865,2.95165,2.95165,0,0,0,.79683-2.15014v-.26183a2.95289,2.95289,0,0,0-.79683-2.15031,2.77925,2.77925,0,0,0-2.08468-.81848,2.81908,2.81908,0,0,0-2.08468.79666,2.93448,2.93448,0,0,0-.79666,2.17213v.26183a2.93353,2.93353,0,0,0,.79666,2.172A2.81785,2.81785,0,0,0,327.38236,123.8521Z"/><path class="cls-2" d="M349.1459,123.54646h3.79826v-10.0413H349.277v-2.61951h6.41759v12.66081H359.231V126.166H349.1459Z"/><path class="cls-2" d="M369.57778,124.59429a2.82723,2.82723,0,0,1-1.22239,1.45158,3.79143,3.79143,0,0,1-1.83367.42573,4.61923,4.61923,0,0,1-1.84467-.3711,4.36255,4.36255,0,0,1-1.517-1.09148,5.31643,5.31643,0,0,1-1.03684-1.7464,6.65914,6.65914,0,0,1-.38209-2.33569v-.34928a6.7682,6.7682,0,0,1,.3711-2.31387,5.38552,5.38552,0,0,1,1.0042-1.74622,4.28021,4.28021,0,0,1,3.27426-1.48439,3.84342,3.84342,0,0,1,1.86649.39292,2.755,2.755,0,0,1,1.12412,1.22239h.39292v-1.30967h2.75042v7.55271q0,.65509.58946.65492h.41474V126.166h-1.87731a1.70657,1.70657,0,0,1-1.2114-.43656,1.47764,1.47764,0,0,1-.46937-1.13511Zm-2.445-.7422a2.46267,2.46267,0,0,0,1.92095-.79683,3.11714,3.11714,0,0,0,.72038-2.172v-.26183a3.11818,3.11818,0,0,0-.72038-2.17213,2.71428,2.71428,0,0,0-3.8419,0,3.119,3.119,0,0,0-.72038,2.17213v.26183a3.118,3.118,0,0,0,.72038,2.172A2.46267,2.46267,0,0,0,367.13283,123.8521Z"/><path class="cls-2" d="M378.222,126.166h-2.75042V110.88565H378.222v6.02485h.39292a3.20284,3.20284,0,0,1,1.2662-1.38612,4.10665,4.10665,0,0,1,2.11732-.49119,4.56684,4.56684,0,0,1,1.82285.3711,4.32963,4.32963,0,0,1,1.506,1.08048,5.30733,5.30733,0,0,1,1.026,1.7354,6.66973,6.66973,0,0,1,.38209,2.33569v.39292a6.91538,6.91538,0,0,1-.3711,2.35768,5.26324,5.26324,0,0,1-1.0042,1.7354,4.10213,4.10213,0,0,1-1.49522,1.06948,5.1998,5.1998,0,0,1-3.15434.20737,3.43154,3.43154,0,0,1-.94956-.41474,2.84445,2.84445,0,0,1-.67674-.60029,4.4123,4.4123,0,0,1-.46937-.70938H378.222Zm2.88151-2.31387a2.81893,2.81893,0,0,0,2.08468-.79683,2.9349,2.9349,0,0,0,.79666-2.172v-.26183a2.93584,2.93584,0,0,0-.79666-2.17213,2.82016,2.82016,0,0,0-2.08468-.79666,2.7782,2.7782,0,0,0-2.08468.81848,2.95148,2.95148,0,0,0-.79683,2.15031v.26183a2.95024,2.95024,0,0,0,.79683,2.15014A2.77767,2.77767,0,0,0,381.10348,123.8521Z"/><path class="cls-2" d="M392.73827,118.39489a.779.779,0,0,0,.54582.753,8.01819,8.01819,0,0,0,1.98641.38209,5.1853,5.1853,0,0,1,2.70678.9932,2.73117,2.73117,0,0,1,1.04784,2.28105v.13109a3.15091,3.15091,0,0,1-1.17875,2.5757,5.1191,5.1191,0,0,1-3.31807.96056,6.31033,6.31033,0,0,1-2.16113-.32746,4.95733,4.95733,0,0,1-1.48422-.81865,3.62244,3.62244,0,0,1-.90593-1.09148,4.20966,4.20966,0,0,1-.42573-1.16776l2.53223-.82947a2.47965,2.47965,0,0,0,.7312,1.22239,2.42664,2.42664,0,0,0,1.71358.52383,2.28676,2.28676,0,0,0,1.40794-.31646.89758.89758,0,0,0,.38209-.68756.8515.8515,0,0,0-.09827-.40391.97829.97829,0,0,0-.3601-.34928,2.46115,2.46115,0,0,0-.70955-.27283,8.21682,8.21682,0,0,0-1.12412-.17455,5.61913,5.61913,0,0,1-2.91415-.94956,2.73146,2.73146,0,0,1-1.08065-2.34668v-.13092a2.80932,2.80932,0,0,1,.34928-1.41894,3.37336,3.37336,0,0,1,.91692-1.03684,4.07641,4.07641,0,0,1,1.30967-.6441,5.39919,5.39919,0,0,1,1.528-.21819,5.64706,5.64706,0,0,1,1.779.251,4.30442,4.30442,0,0,1,1.277.65492,3.789,3.789,0,0,1,.85129.89493,4.82984,4.82984,0,0,1,.50219.94956l-2.48859,1.0042a1.79565,1.79565,0,0,0-.67674-.92775,2.11475,2.11475,0,0,0-1.24421-.33846,1.79547,1.79547,0,0,0-1.04784.25118A.74426.74426,0,0,0,392.73827,118.39489Z"/><path class="cls-2" d="M409.1537,127.34471a2.13156,2.13156,0,0,1-2.22642,2.22659h-2.88151V126.9518H405.814q.58938,0,.58929-.65492V110.75473q0-.65483-.58929-.65492h-1.76821V107.4803h2.88151a2.13156,2.13156,0,0,1,2.22642,2.22659Z"/></g></svg>