<?xml version="1.0" encoding="UTF-8"?>
<svg width="35px" height="45px" viewBox="0 0 35 45" version="1.1" xmlns="http://www.w3.org/2000/svg" xmlns:xlink="http://www.w3.org/1999/xlink">
    <!-- Generator: Sketch 46.2 (44496) - http://www.bohemiancoding.com/sketch -->
    <title>BC</title>
    <desc>Created with Sketch.</desc>
    <defs></defs>
    <g id="Connect-Buttons" stroke="none" stroke-width="1" fill="none" fill-rule="evenodd">
        <g id="Donate-Button" transform="translate(-98.000000, -28.000000)">
            <rect id="bg" fill="#FFFFFF" x="0" y="0" width="231" height="100"></rect>
            <path d="M118,70.5 C111.1075,70.5 105.5,61.5275 105.5,50.5 C105.5,39.4725 111.1075,30.5 118,30.5 C124.8925,30.5 130.5,39.4725 130.5,50.5 C130.5,61.5275 124.8925,70.5 118,70.5 L118,70.5 Z M106.96,68 L108.5925,68 C109.255,68.8025 109.9625,69.52 110.71,70.1475 C109.375,69.75 108.1125,69.02 106.96,68 L106.96,68 Z M103.875,58 C103.975,58.42 104.065,58.8425 104.18,59.25 L101.7775,59.25 C101.65,58.84 101.5275,58.4275 101.42,58 L103.875,58 Z M103.385,55.5 C103.45,55.92 103.52,56.3375 103.6,56.75 L101.1325,56.75 C101.05,56.34 100.98,55.92 100.9125,55.5 L103.385,55.5 Z M103.225,54.25 L100.7275,54.25 C100.6775,53.8375 100.6425,53.42 100.6075,53 L103.0975,53 C103.13,53.4225 103.18,53.835 103.225,54.25 L103.225,54.25 Z M102.6725,61.75 C102.5,61.3475 102.345,60.925 102.19,60.5 L104.5825,60.5 C104.7225,60.925 104.8725,61.3425 105.03,61.75 L102.6725,61.75 Z M103.945,64.25 C103.7075,63.8475 103.475,63.435 103.2575,63 L105.535,63 C105.7275,63.4325 105.94,63.84 106.1525,64.25 L103.945,64.25 Z M105.74,66.75 C105.4,66.36 105.075,65.9425 104.76,65.5 L106.8525,65.5 C107.11,65.93 107.375,66.35 107.6525,66.75 L105.74,66.75 Z M103,50.5 C103,50.9225 103.0275,51.3325 103.0425,51.75 L100.54,51.75 C100.5225,51.335 100.5,50.9225 100.5,50.5 L103,50.5 Z M109.725,31.75 L108.6925,31.75 C109.3425,31.365 110.015,31.06 110.71,30.8525 C110.375,31.1325 110.045,31.4325 109.725,31.75 L109.725,31.75 Z M107.6525,34.25 L105.74,34.25 C106.1325,33.8 106.5375,33.375 106.96,33 L108.5925,33 C108.265,33.395 107.955,33.815 107.6525,34.25 L107.6525,34.25 Z M106.1525,36.75 L103.945,36.75 C104.205,36.3125 104.4775,35.8975 104.76,35.5 L106.8525,35.5 C106.6075,35.905 106.375,36.32 106.1525,36.75 L106.1525,36.75 Z M105.03,39.25 L102.6725,39.25 C102.8575,38.82 103.0525,38.405 103.2575,38 L105.5375,38 C105.355,38.405 105.1925,38.8275 105.03,39.25 L105.03,39.25 Z M104.18,41.75 L101.7775,41.75 C101.9075,41.325 102.0425,40.9075 102.19,40.5 L104.5825,40.5 C104.445,40.915 104.3025,41.3225 104.18,41.75 L104.18,41.75 Z M103.6,44.25 L101.1325,44.25 C101.2225,43.8275 101.315,43.41 101.42,43 L103.875,43 C103.7775,43.4125 103.6825,43.8275 103.6,44.25 L103.6,44.25 Z M103.225,46.75 L100.7275,46.75 C100.7775,46.3275 100.845,45.915 100.9125,45.5 L103.385,45.5 C103.3225,45.9125 103.2725,46.33 103.225,46.75 L103.225,46.75 Z M103.0425,49.25 L100.54,49.25 C100.555,48.83 100.575,48.4125 100.6075,48 L103.0975,48 C103.0675,48.4125 103.0575,48.8325 103.0425,49.25 L103.0425,49.25 Z M118,28 L113,28 C104.7275,28 98,38.095 98,50.5 C98,62.9075 104.7275,73 113,73 L118,73 C126.2725,73 133,62.9075 133,50.5 C133,38.095 126.2725,28 118,28 L118,28 Z M125.64775,46.14075 C125.82275,47.96075 123.87775,49.66325 123.87775,49.66325 C123.89275,49.79325 127.09775,51.30575 126.85025,53.95075 C126.54275,57.24325 124.10525,58.28825 120.61775,58.71575 L120.61775,62.32575 C119.78525,62.40075 119.36775,62.44075 118.53525,62.51575 L118.53525,58.91075 C118.00775,58.94575 117.45275,58.98075 116.88525,59.00575 L116.88525,62.67075 C116.05275,62.74575 115.63525,62.78575 114.80275,62.86075 L114.80275,59.09825 C114.31525,59.13075 113.82775,59.14825 113.32775,59.18075 C112.24775,59.25325 111.70525,59.28575 110.62525,59.36075 C110.79275,58.23575 110.87525,57.67825 111.04525,56.56075 C112.57275,56.51825 112.54525,56.49075 112.54525,56.49075 C113.12525,56.46075 113.28775,55.99325 113.32775,55.69325 L113.32775,49.70075 L113.54525,49.70075 C113.46275,49.68575 113.38275,49.68575 113.32775,49.68575 L113.32775,45.40825 C113.24775,44.92825 112.97775,44.38075 112.12525,44.35075 C112.12525,44.35075 112.15275,44.32075 110.62525,44.29825 L110.62525,41.80825 C111.77025,41.87325 112.34525,41.90575 113.49025,41.97325 C113.91025,41.99325 114.35525,42.01825 114.80275,42.02575 L114.80275,38.30825 C115.63525,38.37325 116.05275,38.40575 116.88525,38.47075 L116.88525,42.06325 C117.44025,42.07825 117.99275,42.09075 118.53525,42.12075 L118.53525,38.59825 C119.36775,38.66325 119.78525,38.69575 120.61775,38.76075 L120.61775,42.33075 C123.29525,42.71075 125.41775,43.65075 125.64775,46.14075 M122.74025,53.66575 C122.74025,50.90575 118.33275,51.36575 116.92525,51.38325 L116.92525,56.29825 C118.33275,56.23325 122.74025,56.33075 122.74025,53.66575 M121.78025,47.01075 C121.78025,44.46825 118.10275,44.72075 116.92525,44.68075 L116.92525,49.14575 C118.10275,49.14825 121.78025,49.44075 121.78025,47.01075" id="BC" fill="#F7931A"></path>
        </g>
    </g>
</svg>