<?xml version="1.0" encoding="UTF-8"?>
<svg width="143px" height="79px" viewBox="0 0 143 79" version="1.1" xmlns="http://www.w3.org/2000/svg" xmlns:xlink="http://www.w3.org/1999/xlink">
    <!-- Generator: Sketch 49.1 (51147) - http://www.bohemiancoding.com/sketch -->
    <title>pixels</title>
    <desc>Created with Sketch.</desc>
    <defs></defs>
    <g id="Connect" stroke="none" stroke-width="1" fill="none" fill-rule="evenodd">
        <g id="Connect-Desktop-(Other)" transform="translate(-190.000000, -303.000000)" fill="#404044">
            <g id="Landing-section" transform="translate(20.000000, 140.000000)">
                <g id="Stats" transform="translate(0.000000, 130.000000)">
                    <g id="pixels/day" transform="translate(125.000000, 0.000000)">
                        <path d="M61,97 L76,97 L76,112 L61,112 L61,97 Z M61,81 L76,81 L76,96 L61,96 L61,81 Z M45,65 L60,65 L60,80 L45,80 L45,65 Z M77,97 L92,97 L92,112 L77,112 L77,97 Z M77,65 L92,65 L92,80 L77,80 L77,65 Z M93,97 L108,97 L108,112 L93,112 L93,97 Z M93,81 L108,81 L108,96 L93,96 L93,81 Z M93,65 L108,65 L108,80 L93,80 L93,65 Z M93,49 L108,49 L108,64 L93,64 L93,49 Z M125,33 L140,33 L140,48 L125,48 L125,33 Z M109,81 L124,81 L124,96 L109,96 L109,81 Z M109,65 L124,65 L124,80 L109,80 L109,65 Z M125,97 L140,97 L140,112 L125,112 L125,97 Z M125,81 L140,81 L140,96 L125,96 L125,81 Z M141,65 L156,65 L156,80 L141,80 L141,65 Z M141,97 L156,97 L156,112 L141,112 L141,97 Z M157,97 L172,97 L172,112 L157,112 L157,97 Z M173,97 L188,97 L188,112 L173,112 L173,97 Z M157,81 L172,81 L172,96 L157,96 L157,81 Z" id="pixels"></path>
                    </g>
                </g>
            </g>
        </g>
    </g>
</svg>