<?xml version="1.0" encoding="UTF-8"?>
<svg width="262px" height="230px" viewBox="0 0 262 230" version="1.1" xmlns="http://www.w3.org/2000/svg" xmlns:xlink="http://www.w3.org/1999/xlink">
    <!-- Generator: Sketch 49.1 (51147) - http://www.bohemiancoding.com/sketch -->
    <title>stage_lg</title>
    <desc>Created with Sketch.</desc>
    <defs>
        <path d="M119.42586,107.581863 C122.562126,109.513955 124.376094,111.800579 124.376094,114.2513 C124.376094,121.181195 109.871858,126.798984 91.979976,126.798984 C76.2905747,126.798984 63.2061193,122.479159 60.22249,116.742818 L60.0861236,116.760837 L12.2746613,34.9925347 L21.7008908,29.336797 L119.42586,107.581863 Z" id="path-1"></path>
        <ellipse id="path-2" cx="91.979976" cy="114.2513" rx="32.3961178" ry="12.5476837"></ellipse>
    </defs>
    <g id="Connect" stroke="none" stroke-width="1" fill="none" fill-rule="evenodd" opacity="0.772192029">
        <g id="Connect-Tablet-(Company)" transform="translate(-254.000000, -1238.000000)">
            <g id="Info-area" transform="translate(0.000000, 754.000000)">
                <g id="stage-and-text" transform="translate(254.000000, 484.000000)">
                    <g id="stage_lg">
                        <circle id="Oval-3" fill="#556781" cx="123.483607" cy="115" r="115"></circle>
                        <g id="empty-spotlight" transform="translate(0.000000, 27.336066)">
                            <g id="stage" transform="translate(77.922650, 13.840099)">
                                <g id="boards" opacity="0.802706069" transform="translate(11.849953, 126.379395)" stroke="#162230" stroke-linecap="round" stroke-width="2">
                                    <path d="M39.4846652,3.70827414 L66.0698386,20.1952443 M71.0790963,23.3017685 L80.6243358,29.2213115" id="Line-4"></path>
                                    <path d="M8.43851676,9.00690157 L23.1959473,18.1588192 M29.7181771,22.2036229 L41.7703826,29.6778774" id="Line-4"></path>
                                    <path d="M0.847248012,16.5751766 L4.07053301,18.574118 M7.80582707,20.8905852 L24.3739554,31.1654189" id="Line-4"></path>
                                    <path d="M37.9924332,15.0322722 L54.4058541,25.2111631" id="Line-4"></path>
                                    <path d="M53.3861034,0.252635639 L78.5856371,15.8802922 M82.7220403,18.4455099 L84.8360656,19.7565366" id="Line-4"></path>
                                    <path d="M72.8597448,0.252635639 L92.6690852,12.5375283 M98.9301001,16.4203379 L116.705195,27.4436797" id="Line-4"></path>
                                    <path d="M99.1772368,4.49689451 L125.376803,20.744728" id="Line-4"></path>
                                    <path d="M111.807028,0.252635639 L133.708885,13.8352162 M139.614108,17.4973791 L148.451122,22.9777119" id="Line-4"></path>
                                </g>
                                <path d="M37.2576159,116.784577 L155.897035,116.784577 M163.462044,116.784577 L181.391331,116.784577" id="floor" stroke="#90ACD7" stroke-width="4" stroke-linecap="round"></path>
                                <polygon id="Path-9" fill="#2F3031" opacity="0.75" points="0.315055415 152.06154 23.8806292 116.241868 0.315055415 116.241868"></polygon>
                                <polygon id="Path-9" fill="#303133" opacity="0.9" points="1.25767837 116.241868 23.8806292 116.241868 33.3068587 0.299245381 1.25767837 0.299245381"></polygon>
                            </g>
                            <g id="bars" transform="translate(65.924461, 3.776157)">
                                <polygon id="Rectangle-2" fill="#383F48" points="9.48537511 0 150.812125 0 164.95147 29.2213115 9.48537511 29.2213115"></polygon>
                                <path d="M0.496579136,7.05899517 L155.821154,7.05899517" id="top" stroke="#49535F" stroke-width="5" stroke-linecap="round"></path>
                                <path d="M0.496579136,34.843493 L168.427915,34.843493" id="bottom" stroke="#49535F" stroke-width="5" stroke-linecap="round"></path>
                                <g id="crossbars" transform="translate(1.877699, 7.864025)" stroke="#49535F" stroke-linecap="square" stroke-width="3">
                                    <path d="M0.205499935,0.84195448 L23.608264,26.0632934" id="Line-5"></path>
                                    <path d="M23.608264,0.84195448 L0.205499935,26.0632934 L23.608264,0.84195448 Z" id="Line-5"></path>
                                    <path d="M25.0278797,0.84195448 L48.4306437,26.0632934" id="Line-5"></path>
                                    <path d="M48.4306437,0.84195448 L25.0278797,26.0632934 L48.4306437,0.84195448 Z" id="Line-5"></path>
                                    <path d="M49.8502594,0.84195448 L73.2530234,26.0632934" id="Line-5"></path>
                                    <path d="M73.2530234,0.84195448 L49.8502594,26.0632934 L73.2530234,0.84195448 Z" id="Line-5"></path>
                                    <path d="M74.6726391,0.84195448 L98.0754032,26.0632934" id="Line-5"></path>
                                    <path d="M98.0754032,0.84195448 L74.6726391,26.0632934 L98.0754032,0.84195448 Z" id="Line-5"></path>
                                    <path d="M99.4950189,0.84195448 L122.897783,26.0632934" id="Line-5"></path>
                                    <path d="M122.897783,0.84195448 L99.4950189,26.0632934 L122.897783,0.84195448 Z" id="Line-5"></path>
                                    <path d="M124.317399,0.84195448 L147.720163,26.0632934" id="Line-5"></path>
                                    <path d="M148.501408,0 L124.317399,26.0632934 L148.501408,0 Z" id="Line-5"></path>
                                </g>
                            </g>
                            <g id="curtains">
                                <path d="M29.1252208,0 L29.1252208,167.725676 C25.2608422,169.390739 21.5683065,171.230822 16.0690874,171.230822 C10.9735975,171.230822 6.65367921,170.045958 3.10933258,167.67623 C1.16642712,166.377209 2.86220146e-16,164.194224 0,161.857059 L0,0 L29.1252208,0 Z M52.2245339,0 L80.3454368,0 L80.3454344,161.857066 C80.3454344,164.194234 79.1790047,166.377222 77.236092,167.676239 C73.6917477,170.045961 69.3718335,171.230822 64.2763494,171.230822 C59.2547596,171.230822 55.7396468,169.696496 52.2245339,168.162169 L52.2245339,-1.77635684e-15 Z" id="light" fill="#494C51"></path>
                                <path d="M29.1252208,0 L52.2245339,0 L52.2245339,168.217963 C48.7094211,166.683127 45.1943082,165.148292 40.1727184,165.148292 C35.628758,165.148292 32.3183258,166.405041 29.1252208,167.781325 L29.1252208,0 Z" id="dark" fill="#4E5C72"></path>
                            </g>
                            <g id="light" transform="translate(88.585994, 32.876318)">
                                <g id="beam">
                                    <use fill-opacity="0.200000018" fill="#6AA1F4" xlink:href="#path-1"></use>
                                    <use fill-opacity="0.200000003" fill="#FAF7A1" xlink:href="#path-1"></use>
                                </g>
                                <g id="Oval-2">
                                    <use fill-opacity="0.200000018" fill="#6AA1F4" xlink:href="#path-2"></use>
                                    <use fill-opacity="0.100000001" fill="#FAF7A1" xlink:href="#path-2"></use>
                                </g>
                                <g id="fixture">
                                    <polyline id="Path-8" stroke="#171819" stroke-width="3" stroke-linecap="round" points="4.01812314 21.0801086 7.53398088 13.5514984 15.5702272 13.5514984 12.0543694 21.0801086"></polyline>
                                    <path d="M4.35550339,22.4217203 C5.31976953,22.2505969 11.5258821,21.2117187 22.9738411,19.3050857 L21.1613811,31.0601887 C10.9674185,31.086399 5.36545923,31.086399 4.35550339,31.0601887 C3.22611183,31.0308789 0.364122078,29.886899 0.364122078,27.0269495 C0.364122078,24.1669999 2.90910418,22.6784054 4.35550339,22.4217203 Z" id="Combined-Shape" fill="#1D1F1D" transform="translate(11.668982, 25.192466) rotate(-308.000000) translate(-11.668982, -25.192466) "></path>
                                    <path d="M11.3707694,0 L11.3707694,12.7986374" id="Line-6" stroke="#171819" stroke-width="3"></path>
                                    <path d="M8.43419184,14.9654328 L16.469345,14.9654328 L17.7890113,12.137564 L6.63376992,12.137564 L2.73700308,20.4818261 C2.40658077,21.1893692 2.71229755,22.0308064 3.41984062,22.3612287 C4.12738369,22.691651 4.96882088,22.3859342 5.29924319,21.6783911 L8.43419184,14.9654328 Z" id="Path" fill="#292B2E"></path>
                                    <polyline id="Path-7" stroke="#292B2E" stroke-width="3" stroke-linecap="round" points="14.4061513 2.76049042 11.392559 2.76049042 11.392559 8.28147125 14.4432702 8.28147125"></polyline>
                                </g>
                            </g>
                        </g>
                    </g>
                </g>
            </g>
        </g>
    </g>
</svg>