<svg xmlns="http://www.w3.org/2000/svg" width="493.21695" height="150.4202" viewBox="0 0 493.21695 150.4202">
  <title>wordmark-nobg</title>
  <g id="Layer_2" data-name="Layer 2">
    <g id="LOGO">
      <g>
        <g id="labs">
          <path d="M184.7,102.3127h26.67618V19.91088H185.589V9.24071H222.9354v93.072h26.67766v10.67018H184.7Z" style="fill: #0c120c"/>
          <path d="M314.98917,100.53311h-1.77811a24.09764,24.09764,0,0,1-9.855,10.967,26.58812,26.58812,0,0,1-13.265,3.55771,36.556,36.556,0,0,1-13.48651-2.44565,30.56439,30.56439,0,0,1-10.89318-7.26162A34.28835,34.28835,0,0,1,258.376,93.56833a45.01438,45.01438,0,0,1-2.66717-16.15369V75.04283a44.57227,44.57227,0,0,1,2.66717-16.006,34.33026,34.33026,0,0,1,7.33547-11.78224,31.49787,31.49787,0,0,1,10.89318-7.33694,34.8541,34.8541,0,0,1,13.19114-2.51949,28.29917,28.29917,0,0,1,13.708,3.3347,23.43168,23.43168,0,0,1,9.70728,10.301h1.77811V39.47312h11.56072V97.86594q0,4.446,4.00076,4.44676H334.256v10.67018h-7.85531a10.98644,10.98644,0,0,1-8.22453-3.26086,11.36856,11.36856,0,0,1-3.187-8.29837ZM291.277,104.09082a23.41754,23.41754,0,0,0,9.55959-1.92728A21.14124,21.14124,0,0,0,308.32124,96.68a26.19955,26.19955,0,0,0,4.88982-8.52137,32.54188,32.54188,0,0,0,1.77811-11.04086V75.33968a32.09915,32.09915,0,0,0-1.77811-10.89318,25.51345,25.51345,0,0,0-4.96514-8.52285,22.77,22.77,0,0,0-7.55847-5.55735,22.34993,22.34993,0,0,0-9.41043-1.99965,22.93721,22.93721,0,0,0-9.48575,1.92581,22.54376,22.54376,0,0,0-7.48316,5.40966,24.64013,24.64013,0,0,0-4.96514,8.44753,32.09915,32.09915,0,0,0-1.77811,10.89318v2.37181q0,12.5982,6.59409,19.63608Q280.75157,104.09082,291.277,104.09082Z" style="fill: #0c120c"/>
          <path d="M359.97785,112.98288H348.41714V9.24071h11.56071V51.03383H361.756A25.45325,25.45325,0,0,1,372.42615,40.882a32.12614,32.12614,0,0,1,14.82157-3.48386,33.37248,33.37248,0,0,1,12.89282,2.51949,32.34823,32.34823,0,0,1,10.7455,7.2631,34.437,34.437,0,0,1,7.40931,11.7084A43.0529,43.0529,0,0,1,421.03784,74.746V77.71a44.52232,44.52232,0,0,1-2.66865,16.006,33.49121,33.49121,0,0,1-7.33547,11.7084,31.01446,31.01446,0,0,1-10.89318,7.18778,35.74256,35.74256,0,0,1-13.18966,2.44565,33.80579,33.80579,0,0,1-7.26163-.81521,29.124,29.124,0,0,1-7.0401-2.51949,30.42515,30.42515,0,0,1-6.151-4.14993,21.99042,21.99042,0,0,1-4.74214-5.8542h-1.77812Zm24.60122-8.89206a25.13577,25.13577,0,0,0,9.78112-1.85343,23.25463,23.25463,0,0,0,7.78147-5.26051,23.70243,23.70243,0,0,0,5.18667-8.29985,30.76413,30.76413,0,0,0,1.85344-10.967V74.746a29.73017,29.73017,0,0,0-1.85344-10.744,24.6679,24.6679,0,0,0-5.18667-8.29985,23.55527,23.55527,0,0,0-7.85531-5.40966,24.519,24.519,0,0,0-9.70728-1.92581,23.20236,23.20236,0,0,0-9.63343,1.99965,24.14615,24.14615,0,0,0-7.78,5.55735,26.11579,26.11579,0,0,0-5.262,8.52285,29.868,29.868,0,0,0-1.9258,10.89318V77.1178a30.2757,30.2757,0,0,0,1.9258,11.04086,26.07779,26.07779,0,0,0,5.262,8.52137,23.1601,23.1601,0,0,0,7.78,5.48351A23.93163,23.93163,0,0,0,384.57907,104.09082Z" style="fill: #0c120c"/>
          <path d="M445.79115,58.44314a9.0354,9.0354,0,0,0,4.52061,8.15216q4.51914,2.81561,16.52438,3.7054,12.89282,1.03674,19.63755,6.14956,6.741,5.11283,6.74326,14.89542v.88906a20.79624,20.79624,0,0,1-2.15028,9.55812,21.31425,21.31425,0,0,1-5.928,7.18778,26.58792,26.58792,0,0,1-9.18743,4.52061,47.04435,47.04435,0,0,1-26.52849-.74137,30.50822,30.50822,0,0,1-10.22713-6.07573,25.27542,25.27542,0,0,1-6.14956-8.59521,28.74565,28.74565,0,0,1-2.37181-9.70728l10.967-2.66865A19.63617,19.63617,0,0,0,448.163,99.27337q5.77962,5.115,15.41231,5.1143,8.15,0,13.11583-3.187a10.07875,10.07875,0,0,0,4.96514-8.9659q0-6.22488-4.8913-8.89206-4.88909-2.66939-15.85684-3.40855-12.74883-.89053-19.56371-5.92951-6.81858-5.03529-6.8171-14.67094v-.89054a18.19247,18.19247,0,0,1,2.22264-9.11358,20.16393,20.16393,0,0,1,6.00336-6.59558,27.587,27.587,0,0,1,8.52137-4.00076,36.495,36.495,0,0,1,9.92881-1.33506,37.1347,37.1347,0,0,1,12.74661,2.00112,29.41318,29.41318,0,0,1,9.18891,5.18814,22.58685,22.58685,0,0,1,5.705,7.33547,28.3241,28.3241,0,0,1,2.59334,8.29984l-10.967,2.66718a15.70992,15.70992,0,0,0-5.705-11.11471q-4.96884-4.003-12.96814-4.00224a26.60668,26.60668,0,0,0-6.00189.66754,17.54178,17.54178,0,0,0-5.1143,1.99964,11.01055,11.01055,0,0,0-3.55623,3.33471A8.22274,8.22274,0,0,0,445.79115,58.44314Z" style="fill: #0c120c"/>
        </g>
        <g id="square_2" data-name="square 2">
          <rect x="52.29846" y="9.24071" width="35.40191" height="6" style="fill: #0c120c"/>
          <polygon points="6 26.137 0 26.137 0 9.241 16.897 9.241 16.897 15.241 6 15.241 6 26.137" style="fill: #0c120c"/>
          <rect y="61.53916" width="6" height="35.40191" style="fill: #0c120c"/>
          <polygon points="16.897 149.241 0 149.241 0 132.344 6 132.344 6 143.241 16.897 143.241 16.897 149.241" style="fill: #0c120c"/>
          <rect x="52.29846" y="143.24071" width="35.40191" height="6" style="fill: #0c120c"/>
          <polygon points="140 149.241 123.103 149.241 123.103 143.241 134 143.241 134 132.344 140 132.344 140 149.241" style="fill: #0c120c"/>
          <rect x="134" y="61.53916" width="6" height="35.40191" style="fill: #0c120c"/>
          <path d="M147.61911,30.90637v6.03054h-24.499v-6.7842q0-5.27688,3.01464-8.10374,3.0159-2.82623,9.04644-4.209,4.14452-1.00279,5.08784-2.763a7.382,7.382,0,0,0,.9427-3.51792,5.91336,5.91336,0,0,0-1.38213-3.83216,5.34939,5.34939,0,0,0-4.398-1.69636,6.07294,6.07294,0,0,0-4.58457,1.759,6.94946,6.94946,0,0,0-1.69636,5.02524V15.077h-6.7842V12.81474a12.91855,12.91855,0,0,1,3.45407-9.04518Q129.27585.00063,135.68322,0a14.12381,14.12381,0,0,1,5.33948.9427,10.91555,10.91555,0,0,1,3.83216,2.51262,11.09354,11.09354,0,0,1,2.32358,3.64312,11.3968,11.3968,0,0,1,.8175,4.209,13.33358,13.33358,0,0,1-2.26223,7.7895q-2.261,3.26754-8.29153,4.52322-4.522,1.00655-6.03054,2.51262a5.432,5.432,0,0,0-1.50732,4.01995v.75366Z" style="fill: #0c120c"/>
        </g>
        <g>
          <path d="M184.71551,123.03592a2.14878,2.14878,0,0,1,.602-1.56787,2.07766,2.07766,0,0,1,1.55371-.61572h2.71631V122.868h-1.93213q-.75586,0-.75586.84033v22.624q0,.83935.75586.83984h1.93213v2.01612h-2.71631a2.07619,2.07619,0,0,1-1.55371-.61622,2.14876,2.14876,0,0,1-.602-1.56787Z" style="fill: #6aa1f4"/>
          <path d="M199.779,134.5159a1.707,1.707,0,0,0,.854,1.54,7.46752,7.46752,0,0,0,3.12207.7002,7.03511,7.03511,0,0,1,3.71,1.16211,3.31521,3.31521,0,0,1,1.27392,2.814v.168a3.9297,3.9297,0,0,1-.40576,1.80615,4.03826,4.03826,0,0,1-1.12011,1.35791,5.03706,5.03706,0,0,1-1.73584.854,8.89146,8.89146,0,0,1-5.01221-.14014,5.7601,5.7601,0,0,1-1.93164-1.148,4.77487,4.77487,0,0,1-1.16211-1.624,5.43082,5.43082,0,0,1-.44824-1.834l2.07226-.5039a3.7115,3.7115,0,0,0,1.23194,2.562,4.23371,4.23371,0,0,0,2.91211.96582,4.52811,4.52811,0,0,0,2.478-.602,1.9041,1.9041,0,0,0,.938-1.69385A1.76133,1.76133,0,0,0,205.631,139.22a7.72138,7.72138,0,0,0-2.99609-.644,6.98663,6.98663,0,0,1-3.6958-1.11963,3.23289,3.23289,0,0,1-1.28809-2.77246v-.168a3.438,3.438,0,0,1,.41993-1.72168,3.80844,3.80844,0,0,1,1.13427-1.24609,5.21233,5.21233,0,0,1,1.60987-.75586,6.89687,6.89687,0,0,1,1.876-.25195,7.0164,7.0164,0,0,1,2.40821.37793,5.55114,5.55114,0,0,1,1.73584.98,4.26386,4.26386,0,0,1,1.07812,1.38574,5.35208,5.35208,0,0,1,.48975,1.56836l-2.07178.5039a2.96967,2.96967,0,0,0-1.07813-2.10009,3.7842,3.7842,0,0,0-2.4497-.75586,5.03237,5.03237,0,0,0-1.13428.126,3.31176,3.31176,0,0,0-.96582.37793,2.07918,2.07918,0,0,0-.67236.62989A1.55239,1.55239,0,0,0,199.779,134.5159Z" style="fill: #6aa1f4"/>
          <path d="M224.67107,142.69217h-.33593a4.31615,4.31615,0,0,1-.88233,1.106,5.7525,5.7525,0,0,1-1.12012.78418,5.13618,5.13618,0,0,1-1.25976.47558,5.5974,5.5974,0,0,1-1.27393.1543,7.01557,7.01557,0,0,1-2.604-.47607,6.12439,6.12439,0,0,1-3.542-3.59815,8.31426,8.31426,0,0,1-.51807-3.03808v-.44776a8.05462,8.05462,0,0,1,.53174-3.01025,6.68308,6.68308,0,0,1,1.42822-2.23975,6.02734,6.02734,0,0,1,2.1001-1.38623,6.87315,6.87315,0,0,1,2.54785-.47558,5.48043,5.48043,0,0,1,2.646.65771,4.9334,4.9334,0,0,1,1.94629,1.918h.33593v-2.18408h2.1836V150.4202h-2.1836Zm-4.64795.44776a4.52859,4.52859,0,0,0,1.81983-.36377,4.37273,4.37273,0,0,0,1.46972-1.03614,4.92169,4.92169,0,0,0,.99415-1.60986,5.72233,5.72233,0,0,0,.36425-2.08594v-.33594a5.64387,5.64387,0,0,0-.36425-2.0581,4.92169,4.92169,0,0,0-.99415-1.60986,4.51479,4.51479,0,0,0-1.48388-1.0503,4.41331,4.41331,0,0,0-1.80567-.37793,4.63293,4.63293,0,0,0-1.834.36377,4.35554,4.35554,0,0,0-1.48438,1.03614,4.78226,4.78226,0,0,0-.98,1.59619,5.72659,5.72659,0,0,0-.35009,2.04394v.44776a5.89516,5.89516,0,0,0,.35009,2.10009,4.62329,4.62329,0,0,0,.98,1.582,4.30507,4.30507,0,0,0,1.47022,1.0083A4.757,4.757,0,0,0,220.02312,143.13993Z" style="fill: #6aa1f4"/>
          <path d="M241.07879,130.93192h2.18408V144.8201h-2.18408v-2.52h-.33594a5.69244,5.69244,0,0,1-1.76416,2.12793,4.637,4.637,0,0,1-2.772.78418,5.754,5.754,0,0,1-2.11426-.37793A4.32715,4.32715,0,0,1,232.4406,143.7a5.238,5.238,0,0,1-1.064-1.876,8.14287,8.14287,0,0,1-.37793-2.604v-8.28808h2.18408v8.0083a4.72212,4.72212,0,0,0,.896,3.19189,3.48482,3.48482,0,0,0,2.74365,1.00782,3.84725,3.84725,0,0,0,3.12207-1.35791,5.47294,5.47294,0,0,0,1.13428-3.626Z" style="fill: #6aa1f4"/>
          <path d="M258.3825,142.46805h-.33594a4.55594,4.55594,0,0,1-1.8623,2.07227,5.0254,5.0254,0,0,1-2.50586.67187,6.9115,6.9115,0,0,1-2.54785-.46191,5.77158,5.77158,0,0,1-2.05811-1.37207,6.48116,6.48116,0,0,1-1.38623-2.22608,8.50589,8.50589,0,0,1-.50391-3.05224v-.44776a8.42106,8.42106,0,0,1,.50391-3.02392,6.4858,6.4858,0,0,1,1.38623-2.22608,5.9465,5.9465,0,0,1,2.05811-1.38623,6.58355,6.58355,0,0,1,2.4917-.47558,5.34742,5.34742,0,0,1,2.59033.62988,4.426,4.426,0,0,1,1.834,1.9458h.33594v-2.18408h2.18408v11.03222q0,.84009.75586.83985h.69971v2.01611h-1.48389a2.0744,2.0744,0,0,1-1.55371-.61621,2.14722,2.14722,0,0,1-.60205-1.56787Zm-4.48.67188a4.42908,4.42908,0,0,0,1.80566-.36377,3.98856,3.98856,0,0,0,1.41407-1.03614,4.94531,4.94531,0,0,0,.92431-1.60986,6.1593,6.1593,0,0,0,.33594-2.08594v-.33594a6.074,6.074,0,0,0-.33594-2.0581,4.81981,4.81981,0,0,0-.938-1.60986,4.30355,4.30355,0,0,0-1.42822-1.0503,4.223,4.223,0,0,0-1.77783-.37793,4.33621,4.33621,0,0,0-1.792.36377,4.25769,4.25769,0,0,0-1.41407,1.02246,4.65256,4.65256,0,0,0-.938,1.59571,6.06175,6.06175,0,0,0-.33594,2.0581v.44776a5.21666,5.21666,0,0,0,1.2456,3.71045A4.22913,4.22913,0,0,0,253.90252,143.13993Z" style="fill: #6aa1f4"/>
          <path d="M264.654,130.93192h5.04v1.84814H270.03a3.59162,3.59162,0,0,1,1.51221-1.69385,4.52083,4.52083,0,0,1,2.23974-.54589,4.43261,4.43261,0,0,1,3.38819,1.37158,5.93785,5.93785,0,0,1,1.37207,4.00439l-2.2959.33594a3.6432,3.6432,0,0,0-.92432-2.78613,3.21639,3.21639,0,0,0-2.26806-.854,3.1378,3.1378,0,0,0-1.49756.33594,3.02846,3.02846,0,0,0-1.0503.92383,4.01091,4.01091,0,0,0-.61572,1.37207,6.904,6.904,0,0,0-.19629,1.68018V142.804h3.52832v2.01611h-8.90429V142.804h3.19189v-9.856h-2.856Z" style="fill: #6aa1f4"/>
          <path d="M284.1701,138.54813a4.92365,4.92365,0,0,0,1.28759,3.332,4.42705,4.42705,0,0,0,3.36036,1.25977,5.83234,5.83234,0,0,0,1.708-.22364,3.98345,3.98345,0,0,0,1.24561-.61621,3.36915,3.36915,0,0,0,.84033-.91015,5.224,5.224,0,0,0,.51807-1.106l2.07178.56006a6.13423,6.13423,0,0,1-2.16993,3.1499,6.8268,6.8268,0,0,1-4.27,1.21826,7.04278,7.04278,0,0,1-2.73-.51807,6.1325,6.1325,0,0,1-2.14209-1.47021,6.81841,6.81841,0,0,1-1.3999-2.26758,8.08425,8.08425,0,0,1-.50391-2.91211v-.67236a7.06615,7.06615,0,0,1,.51807-2.71582,6.44577,6.44577,0,0,1,1.4419-2.16992,6.75338,6.75338,0,0,1,2.16992-1.42823,6.96909,6.96909,0,0,1,2.70215-.51757,6.47408,6.47408,0,0,1,2.95361.62988,6.58867,6.58867,0,0,1,2.04443,1.55371,6.4304,6.4304,0,0,1,1.55371,4.03223v1.792Zm4.648-5.936a4.9484,4.9484,0,0,0-1.72217.29395,4.34957,4.34957,0,0,0-2.37988,2.07226,4.58593,4.58593,0,0,0-.49024,1.55372h8.96a4.02849,4.02849,0,0,0-.43408-1.624,3.97888,3.97888,0,0,0-.98-1.23193,4.53692,4.53692,0,0,0-1.37158-.78418A4.61265,4.61265,0,0,0,288.81805,132.61209Z" style="fill: #6aa1f4"/>
          <path d="M310.46209,142.69217h-.33692a4.05171,4.05171,0,0,1-.85351,1.12012,5.04935,5.04935,0,0,1-1.12012.78369,5.4488,5.4488,0,0,1-1.27441.46191,5.76515,5.76515,0,0,1-1.28711.1543,7.01992,7.01992,0,0,1-2.60449-.47607,6.128,6.128,0,0,1-3.542-3.59815,8.31447,8.31447,0,0,1-.51806-3.03808v-.44776a8.04477,8.04477,0,0,1,.53222-3.01025,6.68208,6.68208,0,0,1,1.42774-2.23975,6.02734,6.02734,0,0,1,2.1001-1.38623,6.87684,6.87684,0,0,1,2.54785-.47558,5.84134,5.84134,0,0,1,2.67383.62988,4.29828,4.29828,0,0,1,1.918,1.9458h.33692V125.22h2.18359v19.6001h-2.18359Zm-4.64844.44776a4.5309,4.5309,0,0,0,1.82031-.36377,4.37762,4.37762,0,0,0,1.46973-1.03614,4.93815,4.93815,0,0,0,.99414-1.60986,5.73244,5.73244,0,0,0,.36426-2.08594v-.33594a5.654,5.654,0,0,0-.36426-2.0581,4.93815,4.93815,0,0,0-.99414-1.60986,4.51678,4.51678,0,0,0-1.48437-1.0503,4.41164,4.41164,0,0,0-1.80567-.37793,4.63631,4.63631,0,0,0-1.834.36377,4.36007,4.36007,0,0,0-1.48438,1.03614,4.77325,4.77325,0,0,0-.97949,1.59619,5.71561,5.71561,0,0,0-.3501,2.04394v.44776a5.8841,5.8841,0,0,0,.3501,2.10009,4.61478,4.61478,0,0,0,.97949,1.582,4.30222,4.30222,0,0,0,1.47071,1.0083A4.75458,4.75458,0,0,0,305.81365,143.13993Z" style="fill: #6aa1f4"/>
          <path d="M333.98064,142.804h5.04V127.23612h-4.87207V125.22h7.05664v17.584h5.04v2.01611H333.98064Z" style="fill: #6aa1f4"/>
          <path d="M361.19646,142.46805h-.33593a4.55142,4.55142,0,0,1-1.86133,2.07227,5.02763,5.02763,0,0,1-2.50684.67187,6.91708,6.91708,0,0,1-2.54785-.46191,5.77829,5.77829,0,0,1-2.05762-1.37207,6.48015,6.48015,0,0,1-1.38574-2.22608,8.50589,8.50589,0,0,1-.5039-3.05224v-.44776a8.42107,8.42107,0,0,1,.5039-3.02392,6.4848,6.4848,0,0,1,1.38574-2.22608,5.95371,5.95371,0,0,1,2.05762-1.38623,6.58609,6.58609,0,0,1,2.49219-.47558,5.34409,5.34409,0,0,1,2.58984.62988,4.42064,4.42064,0,0,1,1.834,1.9458h.33593v-2.18408H363.381v11.03222q0,.84009.75586.83985h.7002v2.01611h-1.48438a2.07515,2.07515,0,0,1-1.55371-.61621,2.1496,2.1496,0,0,1-.60254-1.56787Zm-4.47949.67188a4.4275,4.4275,0,0,0,1.80567-.36377A3.98419,3.98419,0,0,0,359.9367,141.74a4.927,4.927,0,0,0,.92383-1.60986,6.13527,6.13527,0,0,0,.33593-2.08594v-.33594a6.05,6.05,0,0,0-.33593-2.0581,4.80273,4.80273,0,0,0-.9375-1.60986,4.30168,4.30168,0,0,0-1.42774-1.0503,4.22688,4.22688,0,0,0-1.77832-.37793,4.33788,4.33788,0,0,0-1.792.36377,4.26263,4.26263,0,0,0-1.41406,1.02246,4.66892,4.66892,0,0,0-.93848,1.59571,6.074,6.074,0,0,0-.33594,2.0581v.44776a5.21461,5.21461,0,0,0,1.2461,3.71045A4.22909,4.22909,0,0,0,356.717,143.13993Z" style="fill: #6aa1f4"/>
          <path d="M369.93279,144.8201h-2.18457V125.22h2.18457v7.896h.33594a4.81531,4.81531,0,0,1,2.01562-1.918,6.06612,6.06612,0,0,1,2.79981-.65771,6.309,6.309,0,0,1,2.43652.47558A6.1201,6.1201,0,0,1,379.551,132.388a6.51153,6.51153,0,0,1,1.39941,2.21192,8.12492,8.12492,0,0,1,.51855,2.99609v.56006a8.41731,8.41731,0,0,1-.5039,3.02392,6.34213,6.34213,0,0,1-1.38672,2.21192,5.85882,5.85882,0,0,1-2.05762,1.3584,6.76447,6.76447,0,0,1-2.49218.46191,6.38292,6.38292,0,0,1-1.37208-.1543,5.49519,5.49519,0,0,1-1.33007-.47558,5.75284,5.75284,0,0,1-1.16211-.78418,4.15149,4.15149,0,0,1-.89551-1.106h-.33594Zm4.64746-1.68017a4.763,4.763,0,0,0,1.84864-.34961,4.403,4.403,0,0,0,1.46972-.99414,4.478,4.478,0,0,0,.97949-1.56788,5.81221,5.81221,0,0,0,.35059-2.07226V137.596a5.61583,5.61583,0,0,0-.35059-2.02978,4.65356,4.65356,0,0,0-.97949-1.56788,4.4554,4.4554,0,0,0-1.48437-1.02246,4.6364,4.6364,0,0,0-1.834-.36377,4.37955,4.37955,0,0,0-1.81933.37793,4.55409,4.55409,0,0,0-1.47071,1.0503,4.91968,4.91968,0,0,0-.99316,1.60986,5.63361,5.63361,0,0,0-.36426,2.0581v.33594a5.712,5.712,0,0,0,.36426,2.08594,4.91968,4.91968,0,0,0,.99316,1.60986,4.37186,4.37186,0,0,0,1.47071,1.03614A4.52284,4.52284,0,0,0,374.58025,143.13993Z" style="fill: #6aa1f4"/>
          <path d="M388.27264,134.5159a1.70656,1.70656,0,0,0,.85351,1.54,7.46756,7.46756,0,0,0,3.12207.7002,7.03507,7.03507,0,0,1,3.71,1.16211,3.31429,3.31429,0,0,1,1.27442,2.814v.168a3.93,3.93,0,0,1-.40625,1.80615,4.02692,4.02692,0,0,1-1.12012,1.35791,5.03087,5.03087,0,0,1-1.73633.854,8.88973,8.88973,0,0,1-5.01172-.14014,5.7602,5.7602,0,0,1-1.93164-1.148,4.76826,4.76826,0,0,1-1.16211-1.624,5.43082,5.43082,0,0,1-.44824-1.834l2.07227-.5039a3.711,3.711,0,0,0,1.23144,2.562,4.23628,4.23628,0,0,0,2.91211.96582,4.52993,4.52993,0,0,0,2.47852-.602,1.90366,1.90366,0,0,0,.9375-1.69385,1.761,1.761,0,0,0-.92383-1.68018,7.72144,7.72144,0,0,0-2.9961-.644,6.98187,6.98187,0,0,1-3.69531-1.11963,3.23168,3.23168,0,0,1-1.28808-2.77246v-.168a3.43288,3.43288,0,0,1,.41992-1.72168,3.79085,3.79085,0,0,1,1.13379-1.24609,5.20959,5.20959,0,0,1,1.61035-.75586,6.88921,6.88921,0,0,1,1.876-.25195,7.01052,7.01052,0,0,1,2.40722.37793,5.55383,5.55383,0,0,1,1.73633.98,4.25709,4.25709,0,0,1,1.07812,1.38574,5.36789,5.36789,0,0,1,.49024,1.56836l-2.07227.5039a2.96966,2.96966,0,0,0-1.07812-2.10009,3.78657,3.78657,0,0,0-2.4502-.75586,5.0312,5.0312,0,0,0-1.13379.126,3.31188,3.31188,0,0,0-.96582.37793,2.07262,2.07262,0,0,0-.67187.62989A1.55239,1.55239,0,0,0,388.27264,134.5159Z" style="fill: #6aa1f4"/>
          <path d="M409.83221,147.00418a2.15114,2.15114,0,0,1-.60254,1.56787,2.077,2.077,0,0,1-1.55371.61622h-2.71582v-2.01612h1.93164q.75585,0,.75586-.83984v-22.624q0-.84008-.75586-.84033h-1.93164v-2.01562H407.676a2.07843,2.07843,0,0,1,1.55371.61572,2.15116,2.15116,0,0,1,.60254,1.56787Z" style="fill: #6aa1f4"/>
        </g>
      </g>
    </g>
  </g>
</svg>
