<svg xmlns="http://www.w3.org/2000/svg" viewBox="0 0 468.99308 140"><defs><style>.d7c6ea59-51db-4e69-a608-d280c1d06621{fill:#0c120c;}.b055b7a3-4471-444d-a448-99a92267f0bf{fill:#6aa1f4;}</style></defs><title>verbose wordmark</title><g id="da9c1c16-f668-480b-8644-d763d58f69c5" data-name="Layer 2"><g id="49338d24-714a-4a5a-97a6-a43fdd5cd5f7" data-name="LOGO"><g id="f4a017e7-5ae2-4dc2-b947-b92b28b9feaa" data-name="mark"><g id="f1d65de0-ae0c-41d1-9135-88295fb66bfd" data-name="square"><polygon class="d7c6ea59-51db-4e69-a608-d280c1d06621" points="140 16.897 134 16.897 134 6 123.103 6 123.103 0 140 0 140 16.897"/><rect class="d7c6ea59-51db-4e69-a608-d280c1d06621" x="52.29846" width="35.40191" height="6"/><polygon class="d7c6ea59-51db-4e69-a608-d280c1d06621" points="6 16.897 0 16.897 0 0 16.897 0 16.897 6 6 6 6 16.897"/><rect class="d7c6ea59-51db-4e69-a608-d280c1d06621" y="52.29846" width="6" height="35.40191"/><polygon class="d7c6ea59-51db-4e69-a608-d280c1d06621" points="16.897 140 0 140 0 123.103 6 123.103 6 134 16.897 134 16.897 140"/><rect class="d7c6ea59-51db-4e69-a608-d280c1d06621" x="52.29846" y="134" width="35.40191" height="6"/><polygon class="d7c6ea59-51db-4e69-a608-d280c1d06621" points="140 140 123.103 140 123.103 134 134 134 134 123.103 140 123.103 140 140"/><rect class="d7c6ea59-51db-4e69-a608-d280c1d06621" x="134" y="52.29846" width="6" height="35.40191"/></g><path class="d7c6ea59-51db-4e69-a608-d280c1d06621" d="M185.75637,46.06307v5.6856h-23.0965V45.35251q0-4.975,2.84221-7.64021,2.8434-2.66457,8.529-3.96823,3.90567-.94544,4.79682-2.605a6.96161,6.96161,0,0,0,.89-3.3167,5.58145,5.58145,0,0,0-1.30308-3.61295,5.04752,5.04752,0,0,0-4.14764-1.59934,5.72912,5.72912,0,0,0-4.32233,1.65835,6.55238,6.55238,0,0,0-1.60052,4.73781V31.1391h-6.395V29.00627a12.17867,12.17867,0,0,1,3.25532-8.52782q3.25768-3.55335,9.30092-3.55394a13.32257,13.32257,0,0,1,5.03289.88878,10.28615,10.28615,0,0,1,3.61178,2.3689,10.43977,10.43977,0,0,1,2.19067,3.43473,10.72249,10.72249,0,0,1,.77193,3.96824,12.57875,12.57875,0,0,1-2.13166,7.344q-2.13165,3.08064-7.81844,4.2645-4.26332.949-5.68442,2.3689a5.11668,5.11668,0,0,0-1.4211,3.79v.71056Z"/><g id="b59ef959-b399-4d22-b407-91b9c3a9722e" data-name="labs"><path class="d7c6ea59-51db-4e69-a608-d280c1d06621" d="M222.41921,92.68834h21.32022V26.83091H223.12977V18.30306h29.84807V92.68834h21.3214v8.52785h-51.88Z"/><path class="d7c6ea59-51db-4e69-a608-d280c1d06621" d="M326.54933,91.26605h-1.42111a19.25938,19.25938,0,0,1-7.87631,8.7651,21.2499,21.2499,0,0,1-10.60168,2.8434,29.21646,29.21646,0,0,1-10.77873-1.95462,24.42767,24.42767,0,0,1-8.70608-5.80366,27.40372,27.40372,0,0,1-5.86268-9.41663,35.97665,35.97665,0,0,1-2.13167-12.9104v-1.8956a35.62327,35.62327,0,0,1,2.13167-12.79237,27.43743,27.43743,0,0,1,5.86268-9.41664,25.17374,25.17374,0,0,1,8.70608-5.86385,27.85616,27.85616,0,0,1,10.54266-2.01364,22.61729,22.61729,0,0,1,10.95578,2.66518,18.727,18.727,0,0,1,7.75828,8.23277h1.42111V42.4655h9.23959V89.13438q0,3.55338,3.1975,3.554h2.96144v8.52785h-6.27815A8.78061,8.78061,0,0,1,329.09647,98.61a9.086,9.086,0,0,1-2.54714-6.63225ZM307.598,94.10946a18.71586,18.71586,0,0,0,7.64024-1.54033,16.89644,16.89644,0,0,0,5.98189-4.38255,20.93911,20.93911,0,0,0,3.90806-6.81047,26.00821,26.00821,0,0,0,1.42111-8.82412V71.13088a25.65434,25.65434,0,0,0-1.42111-8.70608A20.391,20.391,0,0,0,321.16,55.61314a18.19824,18.19824,0,0,0-6.04091-4.44156,17.86246,17.86246,0,0,0-7.521-1.59816,18.33207,18.33207,0,0,0-7.58123,1.53914,18.01757,18.01757,0,0,0-5.98071,4.32353,19.69285,19.69285,0,0,0-3.96825,6.75147,25.654,25.654,0,0,0-1.42112,8.70608v1.8956q0,10.06876,5.27016,15.6936A17.88829,17.88829,0,0,0,307.598,94.10946Z"/><path class="d7c6ea59-51db-4e69-a608-d280c1d06621" d="M362.50532,101.21619h-9.23959V18.30306h9.23959v33.402h1.42111a20.34282,20.34282,0,0,1,8.52785-8.11356A25.67591,25.67591,0,0,1,384.3,40.80714a26.67205,26.67205,0,0,1,10.30424,2.01364,25.85357,25.85357,0,0,1,8.58805,5.80484,27.52267,27.52267,0,0,1,5.92169,9.35762,34.40886,34.40886,0,0,1,2.19186,12.67315V73.0253A35.58342,35.58342,0,0,1,409.173,85.81767a26.76719,26.76719,0,0,1-5.86268,9.35762,24.78758,24.78758,0,0,1-8.70608,5.74464,28.5664,28.5664,0,0,1-10.54149,1.95462,27.01838,27.01838,0,0,1-5.80366-.65154,23.27649,23.27649,0,0,1-5.62661-2.01363,24.31633,24.31633,0,0,1-4.91605-3.31672,17.57554,17.57554,0,0,1-3.79-4.67881h-1.42111Zm19.66186-7.10673a20.08916,20.08916,0,0,0,7.8173-1.48131,18.58555,18.58555,0,0,0,6.21913-4.20432,18.9435,18.9435,0,0,0,4.1453-6.63343,24.58724,24.58724,0,0,0,1.48131-8.7651V70.65639a23.76091,23.76091,0,0,0-1.48131-8.58687,19.71516,19.71516,0,0,0-4.1453-6.63343,18.826,18.826,0,0,0-6.27815-4.32353,19.59627,19.59627,0,0,0-7.75828-1.53914,18.54379,18.54379,0,0,0-7.69926,1.59816,19.2982,19.2982,0,0,0-6.218,4.44156,20.87229,20.87229,0,0,0-4.20549,6.81166,23.871,23.871,0,0,0-1.53915,8.70608V72.552a24.19689,24.19689,0,0,0,1.53915,8.82412A20.842,20.842,0,0,0,368.25,88.18658a18.51018,18.51018,0,0,0,6.218,4.38255A19.12678,19.12678,0,0,0,382.16718,94.10946Z"/><path class="d7c6ea59-51db-4e69-a608-d280c1d06621" d="M431.08929,57.62678a7.2213,7.2213,0,0,0,3.613,6.51539q3.61179,2.2503,13.20666,2.96144,10.30424.82859,15.69478,4.91488,5.3876,4.08628,5.38937,11.90476v.71055a16.62076,16.62076,0,0,1-1.71856,7.63907,17.03465,17.03465,0,0,1-4.73782,5.74464,21.24974,21.24974,0,0,1-7.34281,3.613,37.599,37.599,0,0,1-21.20218-.59252,24.38289,24.38289,0,0,1-8.17375-4.85586,20.20082,20.20082,0,0,1-4.91488-6.8695,22.97423,22.97423,0,0,1-1.8956-7.75828l8.76509-2.13284a15.69362,15.69362,0,0,0,5.21232,10.83774q4.61921,4.08807,12.31788,4.08747,6.51361,0,10.48247-2.54714a8.05518,8.05518,0,0,0,3.96825-7.16576q0-4.97507-3.90924-7.10674-3.90745-2.13344-12.67315-2.72419-10.18916-.71174-15.63577-4.739-5.44956-4.02432-5.44838-11.72536v-.71173a14.53984,14.53984,0,0,1,1.77639-7.28379,16.11527,16.11527,0,0,1,4.798-5.27133,22.04757,22.04757,0,0,1,6.81048-3.1975,29.16742,29.16742,0,0,1,7.93532-1.067,29.679,29.679,0,0,1,10.18739,1.59934,23.508,23.508,0,0,1,7.344,4.14649,18.05194,18.05194,0,0,1,4.55959,5.86267,22.637,22.637,0,0,1,2.07266,6.63343l-8.7651,2.13167a12.55572,12.55572,0,0,0-4.5596-8.88313q-3.9712-3.19927-10.36443-3.19868a21.26514,21.26514,0,0,0-4.79685.5335,14.01989,14.01989,0,0,0-4.08746,1.59816,8.80005,8.80005,0,0,0-2.84223,2.66518A6.57188,6.57188,0,0,0,431.08929,57.62678Z"/></g></g><g id="d65ea2ef-42ca-4bbf-bc2c-0502cb4e9d81" data-name="[squared labs] regular"><path class="b055b7a3-4471-444d-a448-99a92267f0bf" d="M222.30182,110.79769a1.69007,1.69007,0,0,1,.47265-1.23193,1.63451,1.63451,0,0,1,1.22119-.48389h2.13428v1.584h-1.51806q-.594,0-.59424.66015v17.77588q0,.65991.59424.66016h1.51806v1.584h-2.13428a1.63454,1.63454,0,0,1-1.22119-.48388,1.69124,1.69124,0,0,1-.47265-1.23243Z"/><path class="b055b7a3-4471-444d-a448-99a92267f0bf" d="M234.13775,119.81771a1.34034,1.34034,0,0,0,.6709,1.21,5.86827,5.86827,0,0,0,2.45313.5503,5.52444,5.52444,0,0,1,2.915.91308,2.60463,2.60463,0,0,1,1.001,2.21094v.13184a3.08706,3.08706,0,0,1-.31933,1.41894,3.16549,3.16549,0,0,1-.87989,1.0669,3.95078,3.95078,0,0,1-1.36377.67138,6.98281,6.98281,0,0,1-3.938-.11035,4.5226,4.5226,0,0,1-1.51807-.90185,3.74878,3.74878,0,0,1-.91309-1.27588,4.27139,4.27139,0,0,1-.352-1.44092l1.62793-.396a2.91438,2.91438,0,0,0,.96826,2.0127,3.32368,3.32368,0,0,0,2.2876.75928,3.56058,3.56058,0,0,0,1.94727-.47315,1.49614,1.49614,0,0,0,.73681-1.331,1.38307,1.38307,0,0,0-.72607-1.31983,6.05541,6.05541,0,0,0-2.354-.50586,5.49154,5.49154,0,0,1-2.90381-.88037,2.53905,2.53905,0,0,1-1.01221-2.17773v-.13233a2.7042,2.7042,0,0,1,.33008-1.353,2.9987,2.9987,0,0,1,.89111-.979,4.09793,4.09793,0,0,1,1.26514-.59375,5.42321,5.42321,0,0,1,1.47363-.19824,5.50331,5.50331,0,0,1,1.89209.29736,4.35769,4.35769,0,0,1,1.36426.77,3.3479,3.3479,0,0,1,.84668,1.08887,4.18927,4.18927,0,0,1,.38525,1.23193l-1.62793.396a2.33265,2.33265,0,0,0-.84716-1.6499,2.97338,2.97338,0,0,0-1.92481-.59424,3.95606,3.95606,0,0,0-.89111.09912,2.60741,2.60741,0,0,0-.75928.29687,1.63834,1.63834,0,0,0-.52783.49512A1.222,1.222,0,0,0,234.13775,119.81771Z"/><path class="b055b7a3-4471-444d-a448-99a92267f0bf" d="M253.69537,126.242h-.26416a3.367,3.367,0,0,1-.69287.86865,4.50871,4.50871,0,0,1-.87988.61621,4.03207,4.03207,0,0,1-.99024.374,4.39374,4.39374,0,0,1-1.001.12109,5.51938,5.51938,0,0,1-2.0459-.374,4.81157,4.81157,0,0,1-2.78272-2.82715,6.52539,6.52539,0,0,1-.40722-2.38672v-.352a6.321,6.321,0,0,1,.418-2.36524,5.2423,5.2423,0,0,1,1.12207-1.75976,4.7301,4.7301,0,0,1,1.6499-1.08936,5.40183,5.40183,0,0,1,2.00195-.374,4.31052,4.31052,0,0,1,2.0791.51709,3.86954,3.86954,0,0,1,1.52881,1.50732h.26416v-1.7163h1.71631v15.312h-1.71631Zm-3.65185.35205a3.552,3.552,0,0,0,1.42968-.28613,3.4389,3.4389,0,0,0,1.15528-.814,3.86763,3.86763,0,0,0,.78076-1.26513,4.50137,4.50137,0,0,0,.28613-1.63916V122.326a4.44165,4.44165,0,0,0-.28613-1.61718,3.8728,3.8728,0,0,0-.78076-1.26514,3.55474,3.55474,0,0,0-1.166-.82471,3.46477,3.46477,0,0,0-1.41894-.29687,3.63833,3.63833,0,0,0-1.44092.28564,3.41638,3.41638,0,0,0-1.166.814,3.74849,3.74849,0,0,0-.77,1.25439,4.49593,4.49593,0,0,0-.2749,1.606v.352a4.62834,4.62834,0,0,0,.2749,1.6499,3.62477,3.62477,0,0,0,.77,1.24268,3.3745,3.3745,0,0,0,1.15479.792A3.73541,3.73541,0,0,0,250.04352,126.59408Z"/><path class="b055b7a3-4471-444d-a448-99a92267f0bf" d="M266.58746,117.0018h1.7168v10.9121h-1.7168v-1.98h-.26367a4.46206,4.46206,0,0,1-1.38672,1.67188,3.63642,3.63642,0,0,1-2.17773.61621,4.52541,4.52541,0,0,1-1.66065-.29687,3.40529,3.40529,0,0,1-1.29785-.89112,4.11577,4.11577,0,0,1-.83594-1.47412,6.39182,6.39182,0,0,1-.29687-2.0459v-6.5122h1.71582v6.292a3.71137,3.71137,0,0,0,.7041,2.5083,2.73876,2.73876,0,0,0,2.15576.792,3.0227,3.0227,0,0,0,2.45313-1.06738,4.30148,4.30148,0,0,0,.89062-2.84864Z"/><path class="b055b7a3-4471-444d-a448-99a92267f0bf" d="M280.18316,126.06576h-.26367a3.57727,3.57727,0,0,1-1.46289,1.62793,3.95,3.95,0,0,1-1.96972.52832,5.42337,5.42337,0,0,1-2.002-.36328,4.54122,4.54122,0,0,1-1.61719-1.07764,5.10234,5.10234,0,0,1-1.08886-1.749,6.69015,6.69015,0,0,1-.39551-2.398v-.352a6.6224,6.6224,0,0,1,.39551-2.376,5.10234,5.10234,0,0,1,1.08886-1.749,4.67731,4.67731,0,0,1,1.61719-1.08936,5.17521,5.17521,0,0,1,1.958-.374,4.1986,4.1986,0,0,1,2.03516.49512,3.48047,3.48047,0,0,1,1.4414,1.52929h.26367v-1.7163H281.899v8.668q0,.65993.59375.66016h.55079v1.584h-1.166a1.633,1.633,0,0,1-1.22168-.48388,1.68931,1.68931,0,0,1-.47266-1.23194Zm-3.51953.52832a3.48072,3.48072,0,0,0,1.41895-.28613,3.14027,3.14027,0,0,0,1.11035-.814,3.89007,3.89007,0,0,0,.72656-1.26513,4.838,4.838,0,0,0,.26367-1.63916V122.326a4.773,4.773,0,0,0-.26367-1.61718,3.79729,3.79729,0,0,0-.7373-1.26514,3.37981,3.37981,0,0,0-1.12207-.82471,3.31266,3.31266,0,0,0-1.39649-.29687,3.4048,3.4048,0,0,0-1.4082.28564,3.34647,3.34647,0,0,0-1.11133.80322,3.67284,3.67284,0,0,0-.7373,1.25391,4.77307,4.77307,0,0,0-.26367,1.61719v.352a4.0935,4.0935,0,0,0,.97949,2.91455A3.32159,3.32159,0,0,0,276.66363,126.59408Z"/><path class="b055b7a3-4471-444d-a448-99a92267f0bf" d="M285.11188,117.0018h3.96v1.45214h.26464a2.82225,2.82225,0,0,1,1.1875-1.33105,3.553,3.553,0,0,1,1.75977-.4292,3.48229,3.48229,0,0,1,2.66211,1.07812,4.66162,4.66162,0,0,1,1.07812,3.146l-1.80371.26416a2.8605,2.8605,0,0,0-.72656-2.189,2.52691,2.52691,0,0,0-1.78125-.6709,2.47261,2.47261,0,0,0-1.17773.26367,2.37217,2.37217,0,0,0-.82422.72607,3.13387,3.13387,0,0,0-.48438,1.07813,5.43385,5.43385,0,0,0-.15429,1.31982v4.62012h2.77246v1.584h-6.9961v-1.584H287.356v-7.74414h-2.24414Z"/><path class="b055b7a3-4471-444d-a448-99a92267f0bf" d="M300.44586,122.98568a3.86943,3.86943,0,0,0,1.01172,2.61817,3.47854,3.47854,0,0,0,2.64062.99023,4.57236,4.57236,0,0,0,1.3418-.17627,3.1294,3.1294,0,0,0,.97852-.48389,2.64345,2.64345,0,0,0,.66015-.71484,4.07187,4.07187,0,0,0,.40723-.86914l1.62793.43994a4.8189,4.8189,0,0,1-1.70508,2.4751,5.36663,5.36663,0,0,1-3.35449.957,5.52853,5.52853,0,0,1-2.14551-.40723,4.81685,4.81685,0,0,1-1.68262-1.15478,5.37191,5.37191,0,0,1-1.10058-1.78223,6.35449,6.35449,0,0,1-.39551-2.28808v-.52784a5.55386,5.55386,0,0,1,.40723-2.13379,5.045,5.045,0,0,1,1.13281-1.70507,5.29506,5.29506,0,0,1,1.70508-1.12207,5.48048,5.48048,0,0,1,2.123-.40723,5.08189,5.08189,0,0,1,2.32032.49512A5.17934,5.17934,0,0,1,308.025,118.41a5.05121,5.05121,0,0,1,1.2207,3.168v1.40771Zm3.65234-4.66357a3.87818,3.87818,0,0,0-1.35351.231,3.4206,3.4206,0,0,0-1.87012,1.62793,3.61883,3.61883,0,0,0-.38477,1.22071h7.04a3.16214,3.16214,0,0,0-.34082-1.27588,3.12232,3.12232,0,0,0-.7705-.96777,3.57017,3.57017,0,0,0-1.07715-.61622A3.62172,3.62172,0,0,0,304.0982,118.32211Z"/><path class="b055b7a3-4471-444d-a448-99a92267f0bf" d="M321.10406,126.242h-.26465a3.17081,3.17081,0,0,1-.67089.87988,3.97515,3.97515,0,0,1-.87989.61621,4.29115,4.29115,0,0,1-1.001.3628,4.53427,4.53427,0,0,1-1.01172.12109,5.51753,5.51753,0,0,1-2.0459-.374,4.81412,4.81412,0,0,1-2.7832-2.82715,6.53545,6.53545,0,0,1-.40723-2.38672v-.352a6.33078,6.33078,0,0,1,.418-2.36524,5.2423,5.2423,0,0,1,1.12207-1.75976,4.73665,4.73665,0,0,1,1.65039-1.08936,5.3981,5.3981,0,0,1,2.002-.374,4.5875,4.5875,0,0,1,2.10059.49512,3.38037,3.38037,0,0,1,1.50683,1.52929h.26465V112.514h1.71582v15.3999h-1.71582Zm-3.65234.35205a3.54874,3.54874,0,0,0,1.42969-.28613,3.43886,3.43886,0,0,0,1.15527-.814,3.885,3.885,0,0,0,.78125-1.26513,4.50137,4.50137,0,0,0,.28613-1.63916V122.326a4.44165,4.44165,0,0,0-.28613-1.61718,3.89026,3.89026,0,0,0-.78125-1.26514,3.55474,3.55474,0,0,0-1.166-.82471,3.46473,3.46473,0,0,0-1.41894-.29687,3.64079,3.64079,0,0,0-1.44141.28564,3.42114,3.42114,0,0,0-1.166.814,3.771,3.771,0,0,0-.76953,1.25439,4.49571,4.49571,0,0,0-.27539,1.606v.352a4.62792,4.62792,0,0,0,.27539,1.6499,3.646,3.646,0,0,0,.76953,1.24268,3.38106,3.38106,0,0,0,1.15527.792A3.73544,3.73544,0,0,0,317.45172,126.59408Z"/><path class="b055b7a3-4471-444d-a448-99a92267f0bf" d="M339.58355,126.32992h3.96V114.098h-3.82813v-1.584h5.54395v13.81592h3.96v1.584h-9.63575Z"/><path class="b055b7a3-4471-444d-a448-99a92267f0bf" d="M360.96734,126.06576h-.26367a3.57727,3.57727,0,0,1-1.46289,1.62793,3.95,3.95,0,0,1-1.96973.52832,5.42332,5.42332,0,0,1-2.002-.36328,4.54113,4.54113,0,0,1-1.61719-1.07764,5.10234,5.10234,0,0,1-1.08886-1.749,6.69015,6.69015,0,0,1-.39551-2.398v-.352a6.6224,6.6224,0,0,1,.39551-2.376,5.10234,5.10234,0,0,1,1.08886-1.749,4.67722,4.67722,0,0,1,1.61719-1.08936,5.17521,5.17521,0,0,1,1.958-.374,4.1986,4.1986,0,0,1,2.03516.49512,3.48047,3.48047,0,0,1,1.4414,1.52929h.26367v-1.7163h1.71582v8.668q0,.65993.59375.66016h.55079v1.584h-1.166A1.633,1.633,0,0,1,361.44,127.43a1.68931,1.68931,0,0,1-.47266-1.23194Zm-3.51953.52832a3.48072,3.48072,0,0,0,1.41895-.28613,3.14027,3.14027,0,0,0,1.11035-.814,3.89007,3.89007,0,0,0,.72656-1.26513,4.838,4.838,0,0,0,.26367-1.63916V122.326a4.773,4.773,0,0,0-.26367-1.61718,3.79729,3.79729,0,0,0-.7373-1.26514,3.37981,3.37981,0,0,0-1.12207-.82471,3.31266,3.31266,0,0,0-1.39649-.29687,3.4048,3.4048,0,0,0-1.4082.28564,3.34647,3.34647,0,0,0-1.11133.80322,3.67284,3.67284,0,0,0-.7373,1.25391,4.77307,4.77307,0,0,0-.26368,1.61719v.352a4.0935,4.0935,0,0,0,.9795,2.91455A3.32159,3.32159,0,0,0,357.44781,126.59408Z"/><path class="b055b7a3-4471-444d-a448-99a92267f0bf" d="M367.8316,127.9139h-1.7168V112.514h1.7168v6.2041h.26367a3.77732,3.77732,0,0,1,1.584-1.50732,4.772,4.772,0,0,1,2.20019-.51709,4.95733,4.95733,0,0,1,1.91407.374,4.80479,4.80479,0,0,1,1.59472,1.07813,5.113,5.113,0,0,1,1.09961,1.73828,6.3839,6.3839,0,0,1,.40723,2.354v.43994a6.62232,6.62232,0,0,1-.39551,2.376,4.98339,4.98339,0,0,1-1.08887,1.73779,4.61393,4.61393,0,0,1-1.61718,1.0669,5.30681,5.30681,0,0,1-1.958.36328,5.00954,5.00954,0,0,1-1.07813-.12109,4.30765,4.30765,0,0,1-1.04492-.374,4.5072,4.5072,0,0,1-.91308-.61621,3.24708,3.24708,0,0,1-.70411-.86865h-.26367Zm3.65137-1.31982a3.732,3.732,0,0,0,1.45215-.27539,3.45324,3.45324,0,0,0,1.15527-.78076,3.52,3.52,0,0,0,.76953-1.23194,4.55934,4.55934,0,0,0,.27539-1.62793v-.43994a4.408,4.408,0,0,0-.27539-1.59521,3.65888,3.65888,0,0,0-.76953-1.23194,3.49618,3.49618,0,0,0-1.166-.80322,3.64079,3.64079,0,0,0-1.44141-.28564,3.439,3.439,0,0,0-1.42969.29687,3.58345,3.58345,0,0,0-1.15527.82471,3.87372,3.87372,0,0,0-.78125,1.26514,4.44148,4.44148,0,0,0-.28516,1.61718v.26368a4.50139,4.50139,0,0,0,.28516,1.63916,3.86854,3.86854,0,0,0,.78125,1.26513,3.43886,3.43886,0,0,0,1.15527.814A3.55208,3.55208,0,0,0,371.483,126.59408Z"/><path class="b055b7a3-4471-444d-a448-99a92267f0bf" d="M382.24176,119.81771a1.34128,1.34128,0,0,0,.6709,1.21,5.87028,5.87028,0,0,0,2.45312.5503,5.51992,5.51992,0,0,1,2.915.91308,2.60464,2.60464,0,0,1,1.001,2.21094v.13184a3.09287,3.09287,0,0,1-.31836,1.41894,3.177,3.177,0,0,1-.87989,1.0669,3.95332,3.95332,0,0,1-1.36425.67138,6.98452,6.98452,0,0,1-3.93848-.11035,4.52993,4.52993,0,0,1-1.51758-.90185,3.75524,3.75524,0,0,1-.91308-1.27588,4.26029,4.26029,0,0,1-.35254-1.44092l1.6289-.396a2.91388,2.91388,0,0,0,.96778,2.0127,3.32326,3.32326,0,0,0,2.28808.75928,3.55813,3.55813,0,0,0,1.94629-.47315,1.49659,1.49659,0,0,0,.73731-1.331,1.38437,1.38437,0,0,0-.72559-1.31983,6.06278,6.06278,0,0,0-2.35449-.50586,5.49344,5.49344,0,0,1-2.9043-.88037,2.54115,2.54115,0,0,1-1.01172-2.17773v-.13233a2.7042,2.7042,0,0,1,.33008-1.353,3.0026,3.0026,0,0,1,.89063-.979,4.10047,4.10047,0,0,1,1.26562-.59375,5.418,5.418,0,0,1,1.47363-.19824,5.50818,5.50818,0,0,1,1.89258.29736,4.35232,4.35232,0,0,1,1.36328.77,3.34443,3.34443,0,0,1,.84766,1.08887,4.21717,4.21717,0,0,1,.38477,1.23193l-1.62793.396a2.33042,2.33042,0,0,0-.84668-1.6499,2.97712,2.97712,0,0,0-1.92579-.59424,3.9549,3.9549,0,0,0-.89062.09912,2.599,2.599,0,0,0-.75879.29687,1.63034,1.63034,0,0,0-.52832.49512A1.22226,1.22226,0,0,0,382.24176,119.81771Z"/><path class="b055b7a3-4471-444d-a448-99a92267f0bf" d="M399.18219,129.62972a1.692,1.692,0,0,1-.47364,1.23243,1.63415,1.63415,0,0,1-1.2207.48388h-2.13379v-1.584h1.51758q.59473,0,.59473-.66016V111.326q0-.65991-.59473-.66015h-1.51758v-1.584h2.13379a1.63412,1.63412,0,0,1,1.2207.48389,1.6908,1.6908,0,0,1,.47364,1.23193Z"/></g></g></g></svg>