<svg xmlns="http://www.w3.org/2000/svg" width="502.67562" height="149.24071" viewBox="0 0 502.67562 149.24071">
  <title>wordmark</title>
  <g id="Layer_2" data-name="Layer 2">
    <g id="LOGO">
      <g>
        <g id="labs">
          <path d="M194.15866,119.30225h26.67618V36.90043H195.04772V26.23025h37.34636v93.072h26.67765v10.67018H194.15866Z" style="fill: #0c120c"/>
          <path d="M324.44785,117.52266h-1.77812a24.09769,24.09769,0,0,1-9.855,10.967,26.58822,26.58822,0,0,1-13.265,3.55771,36.55619,36.55619,0,0,1-13.48651-2.44565,30.56442,30.56442,0,0,1-10.89318-7.26163,34.28816,34.28816,0,0,1-7.33547-11.78224,45.01433,45.01433,0,0,1-2.66717-16.15368V92.03238a44.57223,44.57223,0,0,1,2.66717-16.006,34.33026,34.33026,0,0,1,7.33547-11.78224,31.49789,31.49789,0,0,1,10.89318-7.337,34.8541,34.8541,0,0,1,13.19114-2.51949,28.299,28.299,0,0,1,13.708,3.33471,23.43162,23.43162,0,0,1,9.70728,10.301h1.77812V56.46266h11.56071v58.39282q0,4.446,4.00076,4.44677h3.70539v10.67018H335.8594a10.98641,10.98641,0,0,1-8.22453-3.26087,11.36852,11.36852,0,0,1-3.187-8.29837Zm-23.71216,3.55771a23.41754,23.41754,0,0,0,9.55959-1.92728,21.14148,21.14148,0,0,0,7.48463-5.48351,26.19947,26.19947,0,0,0,4.88982-8.52137,32.542,32.542,0,0,0,1.77812-11.04087V92.32923a32.09911,32.09911,0,0,0-1.77812-10.89318,25.51318,25.51318,0,0,0-4.96514-8.52285,22.77,22.77,0,0,0-7.55847-5.55736,22.35007,22.35007,0,0,0-9.41043-1.99964,22.93737,22.93737,0,0,0-9.48575,1.9258,22.54365,22.54365,0,0,0-7.48316,5.40967,24.64,24.64,0,0,0-4.96514,8.44753,32.09915,32.09915,0,0,0-1.77811,10.89318v2.37181q0,12.59819,6.59409,19.63608Q290.21024,121.08037,300.73569,121.08037Z" style="fill: #0c120c"/>
          <path d="M369.43652,129.97243H357.87581V26.23025h11.56071V68.02338h1.77812a25.45319,25.45319,0,0,1,10.67018-10.15181,32.126,32.126,0,0,1,14.82157-3.48387,33.37248,33.37248,0,0,1,12.89282,2.51949,32.3484,32.3484,0,0,1,10.7455,7.26311A34.4369,34.4369,0,0,1,427.754,75.87869a43.053,43.053,0,0,1,2.7425,15.85685v2.964a44.52232,44.52232,0,0,1-2.66866,16.006,33.49117,33.49117,0,0,1-7.33547,11.70839,31.01435,31.01435,0,0,1-10.89318,7.18779,35.74276,35.74276,0,0,1-13.18966,2.44565,33.80581,33.80581,0,0,1-7.26163-.81522,29.12377,29.12377,0,0,1-7.0401-2.51949,30.42469,30.42469,0,0,1-6.151-4.14992,21.99042,21.99042,0,0,1-4.74214-5.8542h-1.77812Zm24.60122-8.89206a25.13578,25.13578,0,0,0,9.78112-1.85344,23.25434,23.25434,0,0,0,7.78147-5.26051,23.70248,23.70248,0,0,0,5.18667-8.29984,30.76413,30.76413,0,0,0,1.85344-10.967v-2.964a29.73017,29.73017,0,0,0-1.85344-10.744,24.6677,24.6677,0,0,0-5.18667-8.29985A23.55515,23.55515,0,0,0,403.745,67.282a24.51921,24.51921,0,0,0-9.70728-1.9258,23.20252,23.20252,0,0,0-9.63343,1.99964,24.14618,24.14618,0,0,0-7.78,5.55736,26.11569,26.11569,0,0,0-5.262,8.52285,29.868,29.868,0,0,0-1.9258,10.89318v1.77811a30.27579,30.27579,0,0,0,1.9258,11.04087,26.0779,26.0779,0,0,0,5.262,8.52137,23.16038,23.16038,0,0,0,7.78,5.48351A23.93163,23.93163,0,0,0,394.03774,121.08037Z" style="fill: #0c120c"/>
          <path d="M455.24982,75.43269a9.03544,9.03544,0,0,0,4.52061,8.15216q4.51914,2.81559,16.52438,3.70539,12.89282,1.03675,19.63755,6.14957,6.741,5.11283,6.74326,14.89542v.88906a20.7962,20.7962,0,0,1-2.15028,9.55811,21.31419,21.31419,0,0,1-5.928,7.18779,26.58809,26.58809,0,0,1-9.18743,4.52061,47.04424,47.04424,0,0,1-26.52849-.74138,30.508,30.508,0,0,1-10.22713-6.07572,25.27536,25.27536,0,0,1-6.14956-8.59522,28.7456,28.7456,0,0,1-2.37181-9.70727l10.967-2.66865a19.63614,19.63614,0,0,0,6.52173,13.56035q5.77962,5.115,15.41231,5.1143,8.15,0,13.11583-3.187a10.07876,10.07876,0,0,0,4.96514-8.9659q0-6.2249-4.8913-8.89206-4.88909-2.6694-15.85684-3.40855-12.74883-.89054-19.56371-5.92952-6.81858-5.03529-6.8171-14.67094v-.89053a18.19251,18.19251,0,0,1,2.22264-9.11359,20.164,20.164,0,0,1,6.00336-6.59557,27.58667,27.58667,0,0,1,8.52138-4.00076,36.49489,36.49489,0,0,1,9.9288-1.33507,37.1347,37.1347,0,0,1,12.74661,2.00112,29.41357,29.41357,0,0,1,9.18891,5.18814,22.58706,22.58706,0,0,1,5.705,7.33547,28.32416,28.32416,0,0,1,2.59334,8.29985l-10.967,2.66718a15.70994,15.70994,0,0,0-5.705-11.11471q-4.96884-4.003-12.96814-4.00224A26.60652,26.60652,0,0,0,465.254,65.43a17.54157,17.54157,0,0,0-5.1143,1.99965,11.01056,11.01056,0,0,0-3.55624,3.3347A8.2228,8.2228,0,0,0,455.24982,75.43269Z" style="fill: #0c120c"/>
        </g>
        <g id="square_2" data-name="square 2">
          <rect x="52.29846" y="9.24071" width="35.40191" height="6" style="fill: #0c120c"/>
          <polygon points="6 26.137 0 26.137 0 9.241 16.897 9.241 16.897 15.241 6 15.241 6 26.137" style="fill: #0c120c"/>
          <rect y="61.53916" width="6" height="35.40191" style="fill: #0c120c"/>
          <polygon points="16.897 149.241 0 149.241 0 132.344 6 132.344 6 143.241 16.897 143.241 16.897 149.241" style="fill: #0c120c"/>
          <rect x="52.29846" y="143.24071" width="35.40191" height="6" style="fill: #0c120c"/>
          <polygon points="140 149.241 123.103 149.241 123.103 143.241 134 143.241 134 132.344 140 132.344 140 149.241" style="fill: #0c120c"/>
          <rect x="134" y="61.53916" width="6" height="35.40191" style="fill: #0c120c"/>
          <path d="M147.61911,30.90637v6.03054h-24.499v-6.7842q0-5.27688,3.01464-8.10374,3.0159-2.82623,9.04644-4.209,4.14452-1.00279,5.08784-2.763a7.382,7.382,0,0,0,.9427-3.51792,5.91336,5.91336,0,0,0-1.38213-3.83216,5.34939,5.34939,0,0,0-4.398-1.69636,6.07294,6.07294,0,0,0-4.58457,1.759,6.94946,6.94946,0,0,0-1.69636,5.02524V15.077h-6.7842V12.81474a12.91855,12.91855,0,0,1,3.45407-9.04518Q129.27585.00063,135.68322,0a14.12381,14.12381,0,0,1,5.33948.9427,10.91555,10.91555,0,0,1,3.83216,2.51262,11.09354,11.09354,0,0,1,2.32358,3.64312,11.3968,11.3968,0,0,1,.8175,4.209,13.33358,13.33358,0,0,1-2.26223,7.7895q-2.261,3.26754-8.29153,4.52322-4.522,1.00655-6.03054,2.51262a5.432,5.432,0,0,0-1.50732,4.01995v.75366Z" style="fill: #0c120c"/>
        </g>
      </g>
    </g>
  </g>
</svg>
