<svg version="1" xmlns="http://www.w3.org/2000/svg" width="933.333" height="933.333" viewBox="0 0 700.000000 700.000000"><path d="M571.5 67c-10 2.9-13.3 4.7-18.9 10.3-5.6 5.5-10.5 14.1-12.5 21.5-1.5 5.2-2.1 20.2-1 20.3 3 .3 21.6.4 22.7.1.8-.3 1.2-2.4 1.2-6.1 0-16.4 8.7-26.3 23-26.2 15.4 0 23.6 12.4 18.4 27.8-2.8 8.2-6 10.5-21.5 14.8-13.9 3.9-21.4 7.4-28.7 13.3-10 8-12.8 16.5-13.1 39.5l-.2 15.7 44.3-.2 44.3-.3.1-9c0-5-.2-9.8-.4-10.7-.4-1.6-2.8-1.7-32.1-1.5l-31.6.2v-3c0-4.3 2.2-10.6 4.8-13.3 3.4-3.6 9.1-6.2 21.7-9.7 23.5-6.5 31.6-13.2 36.5-30 3.7-12.8 1.7-26.9-5.6-37.8-4.7-7.1-15.4-14.5-23.5-16.3-6.6-1.4-21.9-1.1-27.9.6zM98 128.5v30.6l10.8-.3 10.7-.3v-39h39l.3-10.8.3-10.7H98v30.5zM286.3 108.7l.2 10.8h127v-21l-63.7-.3-63.6-.2.1 10.7zM98.2 349.8l.3 63.7h10.2c6.3.1 10.4-.3 10.6-1 .2-.5.3-29.1.3-63.5l-.1-62.5-10.8-.2L98 286l.2 63.8zM580.7 286.8c-.2.4-.3 29-.3 63.7l.1 63H602V286.2h-10.5c-5.8 0-10.6.3-10.8.6zM98 571.5V602h61.1l-.3-10.8-.3-10.7-18.5-.1c-10.2-.1-18.9-.2-19.5-.3-.6-.1-1-7.3-1-19.4v-19.2l-10.8-.3-10.7-.3v30.6zM580.7 541.7c-.2.5-.3 9.2-.3 19.5.1 12-.3 18.8-.9 18.9-.5.1-9.3.2-19.5.3l-18.5.1-.3 10.7-.3 10.8H602v-61h-10.4c-5.8 0-10.7.3-10.9.7zM287 581c-.4.3-.8 5.1-.8 10.7l-.1 10.3h127.4l-.1-10.3c-.1-5.6-.2-10.4-.3-10.7-.1-.7-125-.7-126.1 0z"/></svg>