<svg xmlns="http://www.w3.org/2000/svg" viewBox="0 0 52 36">
  <defs>
    <style>
      .cls-1 {
        fill: #404044;
      }

      .cls-2 {
        fill: #a9a9b0;
      }

      .cls-3 {
        fill: #6aa1f4;
      }
    </style>
  </defs>
  <title>btcArt</title>
  <g id="Layer_2" data-name="Layer 2">
    <g id="Layer_1-2" data-name="Layer 1">
      <g>
        <polygon id="plus" class="cls-1" points="46.819 23.899 44.998 23.899 44.998 22 43.83 22 43.83 23.899 42 23.899 42 25.071 43.83 25.071 43.83 27 44.998 27 44.998 25.071 46.819 25.071 46.819 23.899"/>
        <polygon id="plus-2" data-name="plus" class="cls-1" points="14.763 28.279 12.586 28.279 12.586 26 11.189 26 11.189 28.279 9 28.279 9 29.685 11.189 29.685 11.189 32 12.586 32 12.586 29.685 14.763 29.685 14.763 28.279"/>
        <polygon id="plus-3" data-name="plus" class="cls-1" points="6 4.519 4.489 4.519 4.489 3 3.519 3 3.519 4.519 2 4.519 2 5.457 3.519 5.457 3.519 7 4.489 7 4.489 5.457 6 5.457 6 4.519"/>
        <polygon id="plus-4" data-name="plus" class="cls-1" points="34 1.899 32.111 1.899 32.111 0 30.899 0 30.899 1.899 29 1.899 29 3.071 30.899 3.071 30.899 5 32.111 5 32.111 3.071 34 3.071 34 1.899"/>
        <path id="dollar" class="cls-2" d="M2.68868,15.96a5.95828,5.95828,0,0,1,1.0967.384,2.367,2.367,0,0,1,.86085.66A1.83575,1.83575,0,0,1,5,18.144a1.55989,1.55989,0,0,1-.50708,1.2,2.45627,2.45627,0,0,1-1.22641.576V21H1.79245V19.92A2.50236,2.50236,0,0,1,.566,19.296,1.8936,1.8936,0,0,1,0,18H1.08491a.963.963,0,0,0,.35377.744,1.68272,1.68272,0,0,0,1.0967.312,1.58461,1.58461,0,0,0,1.07311-.312.75738.75738,0,0,0,.25943-.576.87875.87875,0,0,0-.283-.672,2.57006,2.57006,0,0,0-1.191-.552,4.13287,4.13287,0,0,1-1.66274-.72A1.67,1.67,0,0,1,.09434,14.88a1.61335,1.61335,0,0,1,.49528-1.188,2.3467,2.3467,0,0,1,1.20283-.612V12H3.26651v1.104a2.04909,2.04909,0,0,1,1.17924.72A1.98847,1.98847,0,0,1,4.85849,15H3.77358q-.03537-1.056-1.2382-1.056a1.61079,1.61079,0,0,0-.967.258.801.801,0,0,0-.35378.678.74872.74872,0,0,0,.33019.612A3.44922,3.44922,0,0,0,2.68868,15.96Z"/>
        <path id="dollar-2" data-name="dollar" class="cls-2" d="M22.15094,5.08a4.85721,4.85721,0,0,1,.87736.29867A1.88745,1.88745,0,0,1,23.717,5.892,1.40082,1.40082,0,0,1,24,6.77867a1.19746,1.19746,0,0,1-.40566.93333,1.98909,1.98909,0,0,1-.98113.448V9H21.434V8.16a2.02255,2.02255,0,0,1-.98113-.48533A1.45419,1.45419,0,0,1,20,6.66667h.86792a.74139.74139,0,0,0,.283.57866,1.3735,1.3735,0,0,0,.87736.24267,1.29283,1.29283,0,0,0,.85849-.24267.582.582,0,0,0,.20755-.448.67447.67447,0,0,0-.22642-.52266,2.0812,2.0812,0,0,0-.95283-.42934,3.35327,3.35327,0,0,1-1.33018-.56A1.28527,1.28527,0,0,1,20.07547,4.24a1.23775,1.23775,0,0,1,.39623-.924A1.8965,1.8965,0,0,1,21.434,2.84V2h1.17925v.85867a1.64685,1.64685,0,0,1,.94339.56,1.51983,1.51983,0,0,1,.33019.91466h-.86792q-.0283-.82134-.99057-.82133a1.31614,1.31614,0,0,0-.77358.20067.61809.61809,0,0,0-.283.52733.57806.57806,0,0,0,.26415.476A2.80214,2.80214,0,0,0,22.15094,5.08Z"/>
        <path id="dollar-3" data-name="dollar" class="cls-2" d="M13.37736,11.92a11.91683,11.91683,0,0,1,2.1934.768,4.73377,4.73377,0,0,1,1.72169,1.32A3.6715,3.6715,0,0,1,18,16.288a3.11983,3.11983,0,0,1-1.01415,2.4A4.91261,4.91261,0,0,1,14.533,19.84V22H11.58491V19.84a5.00472,5.00472,0,0,1-2.45283-1.248A3.78717,3.78717,0,0,1,8,16h2.16981a1.926,1.926,0,0,0,.70755,1.488,3.36545,3.36545,0,0,0,2.1934.624,3.16922,3.16922,0,0,0,2.14622-.624,1.5148,1.5148,0,0,0,.51887-1.152,1.75751,1.75751,0,0,0-.566-1.344,5.14012,5.14012,0,0,0-2.38207-1.104,8.26573,8.26573,0,0,1-3.32548-1.44A3.3399,3.3399,0,0,1,8.18868,9.76a3.2267,3.2267,0,0,1,.99056-2.376A4.69336,4.69336,0,0,1,11.58491,6.16V4H14.533V6.208a4.09824,4.09824,0,0,1,2.35849,1.44A3.97707,3.97707,0,0,1,17.717,10H15.54717q-.07076-2.112-2.47641-2.112a3.22162,3.22162,0,0,0-1.934.516,1.602,1.602,0,0,0-.70755,1.356,1.49747,1.49747,0,0,0,.66038,1.224A6.89854,6.89854,0,0,0,13.37736,11.92Z"/>
        <g id="mainIcon">
          <path id="BC" class="cls-3" d="M31.42857,34.61111c-3.93857,0-7.14285-4.98472-7.14285-11.11111S27.49,12.38889,31.42857,12.38889,38.57143,17.37361,38.57143,23.5,35.36714,34.61111,31.42857,34.61111ZM25.12,33.22222h.93286a9.33093,9.33093,0,0,0,1.21,1.19306A5.745,5.745,0,0,1,25.12,33.22222Zm-1.76286-5.55555c.05715.23333.10857.46805.17429.69444H22.15857c-.07286-.22778-.14286-.45694-.20428-.69444Zm-.28-1.38889c.03715.23333.07715.46528.12286.69444H21.79c-.04714-.22778-.08714-.46111-.12571-.69444Zm-.09143-.69445H21.55857c-.02857-.22916-.04857-.46111-.06857-.69444h1.42286C22.93143,25.12361,22.96,25.35278,22.98571,25.58333ZM22.67,29.75c-.09857-.22361-.18714-.45833-.27571-.69444h1.36714q.12.35417.25571.69444Zm.72714,1.38889c-.13571-.22361-.26857-.45278-.39285-.69445h1.30142c.11.24028.23143.46667.35286.69445Zm1.02572,1.38889c-.19429-.21667-.38-.44861-.56-.69445h1.19571c.14715.23889.29857.47223.45714.69445ZM22.85714,23.5c0,.23472.01572.4625.02429.69444h-1.43c-.01-.23055-.02286-.45972-.02286-.69444ZM26.7,13.08333h-.59a5.24017,5.24017,0,0,1,1.15286-.49861C27.07143,12.74028,26.88286,12.90694,26.7,13.08333Zm-1.18429,1.38889H24.42286a7.76012,7.76012,0,0,1,.69714-.69444h.93286C25.86572,13.99722,25.68857,14.23056,25.51571,14.47222Zm-.85714,1.38889H23.39714c.14857-.24305.30429-.47361.46572-.69444h1.19571C24.91857,15.39167,24.78572,15.62222,24.65857,15.86111ZM24.01714,17.25H22.67c.10571-.23889.21714-.46944.33429-.69444h1.30285C24.20286,16.78056,24.11,17.01528,24.01714,17.25Zm-.48571,1.38889H22.15857c.07429-.23611.15143-.46806.23572-.69445h1.36714C23.68286,18.175,23.60143,18.40139,23.53143,18.63889ZM23.2,20.02778H21.79c.05143-.23472.10429-.46667.16429-.69445h1.40285C23.30143,19.5625,23.24714,19.79306,23.2,20.02778Zm-.21429,1.38889H21.55857c.02857-.23473.06714-.46389.10572-.69445h1.41285C23.04143,20.95139,23.01286,21.18333,22.98571,21.41667Zm-.10428,1.38889h-1.43c.00857-.23334.02-.46528.03857-.69445h1.42286C22.89571,22.34028,22.89,22.57361,22.88143,22.80556ZM31.42857,11H28.57143C23.84429,11,20,16.60833,20,23.5c0,6.893,3.84429,12.5,8.57143,12.5h2.85714C36.15572,36,40,30.39305,40,23.5,40,16.60833,36.15572,11,31.42857,11Zm4.37014,10.07819c.1,1.01112-1.01143,1.95695-1.01143,1.95695.00858.07222,1.84.9125,1.69858,2.38194-.17572,1.82917-1.56857,2.40973-3.56143,2.64723v2.00555c-.47571.04167-.71429.06389-1.19.10556V28.17264c-.30143.01944-.61857.03889-.94286.05278v2.03611c-.47571.04166-.71428.06389-1.19.10555V28.27681c-.27857.018-.55714.02777-.84286.04583-.61714.04028-.92714.05833-1.54428.1.09571-.625.14286-.93472.24-1.55556a6.42629,6.42629,0,0,0,.85714-.03889.46314.46314,0,0,0,.44714-.443V23.056H28.883a.707.707,0,0,0-.12429-.00833V20.67125a.65217.65217,0,0,0-.68714-.5875,5.96467,5.96467,0,0,0-.85714-.02917V18.67125c.65428.03611.98286.05417,1.63714.09167.24.01111.49429.025.75.02916V16.7268c.47572.03612.71429.05417,1.19.09028v1.99584c.31715.00833.63286.01527.94286.03194V16.88792c.47571.03611.71429.05416,1.19.09028v1.98333c1.53.21111,2.74286.73333,2.87428,2.11666m-1.66142,4.18056c0-1.53333-2.51858-1.27778-3.32286-1.26806v2.73056c.80428-.03611,3.32286.01806,3.32286-1.4625m-.54858-3.69722c0-1.4125-2.10142-1.27223-2.77428-1.29445v2.48056c.67286.00139,2.77428.16389,2.77428-1.18611"/>
        </g>
        <path id="pizza" class="cls-2" d="M50.71808,4.69334l-.00889-1.8096L38.21935,8.6691l1.37874,1.17508ZM50.72462,6.024,40.61189,10.70823,50.7903,19.38312ZM36,8.36346,51.89676,1,52,22Zm11.55984.35521A1.50028,1.50028,0,0,1,49.31772,7.519a1.51622,1.51622,0,0,1,1.18569,1.77856,1.50026,1.50026,0,0,1-1.75787,1.19966A1.51623,1.51623,0,0,1,47.55984,8.71867Zm0,6.06792a1.50028,1.50028,0,0,1,1.75788-1.19966,1.51622,1.51622,0,0,1,1.18569,1.77856,1.50026,1.50026,0,0,1-1.75787,1.19966A1.51623,1.51623,0,0,1,47.55984,14.78659Zm-3.99821-3.034A1.50026,1.50026,0,0,1,45.3195,10.553a1.51623,1.51623,0,0,1,1.1857,1.77856,1.50027,1.50027,0,0,1-1.75787,1.19966A1.51622,1.51622,0,0,1,43.56163,11.75263Z"/>
      </g>
    </g>
  </g>
</svg>
