<svg xmlns="http://www.w3.org/2000/svg" viewBox="0 0 52 36">
  <defs>
    <style>
      .cls-1 {
        fill: #6aa1f4;
      }

      .cls-2, .cls-3 {
        fill: none;
        stroke-linecap: round;
      }

      .cls-2 {
        stroke: #404044;
      }

      .cls-3 {
        stroke: #fff;
      }

      .cls-4 {
        fill: #a9a9b0;
      }

      .cls-5 {
        fill: #404044;
      }
    </style>
  </defs>
  <title>contactArt</title>
  <g id="Layer_2" data-name="Layer 2">
    <g id="Layer_1-2" data-name="Layer 1">
      <g id="maAaaAaAAil">
        <path id="mail---material" class="cls-1" d="M41.53606,13.02994V10.515L31.5,16.77246,21.46394,10.515v2.515L31.5,19.22754Zm0-5.02994a2.33158,2.33158,0,0,1,1.74279.7485A2.46157,2.46157,0,0,1,44,10.515V25.485a2.46157,2.46157,0,0,1-.72115,1.76647A2.33158,2.33158,0,0,1,41.53606,28H21.46394a2.33158,2.33158,0,0,1-1.74279-.7485A2.46157,2.46157,0,0,1,19,25.485V10.515a2.46157,2.46157,0,0,1,.72115-1.76647A2.33158,2.33158,0,0,1,21.46394,8Z"/>
        <path id="Line" class="cls-2" d="M14,28h4"/>
        <path id="Line-2" data-name="Line" class="cls-2" d="M9,26h1"/>
        <path id="Line-3" data-name="Line" class="cls-2" d="M12,26h5"/>
        <path id="Line-4" data-name="Line" class="cls-2" d="M12,23h5"/>
        <path id="Line-5" data-name="Line" class="cls-3" d="M40,23h4"/>
        <path id="Line-6" data-name="Line" class="cls-3" d="M41,25h3"/>
        <path id="Line-7" data-name="Line" class="cls-3" d="M38,25h1"/>
        <path id="Line-8" data-name="Line" class="cls-3" d="M34,27h1"/>
        <path id="Line-9" data-name="Line" class="cls-3" d="M37,27h9"/>
        <path id="Line-10" data-name="Line" class="cls-2" d="M14,8h4"/>
        <path id="Line-11" data-name="Line" class="cls-2" d="M10,8h2"/>
        <path id="Line-12" data-name="Line" class="cls-2" d="M13,10h4"/>
        <path id="paper-plane---FontAwesome" class="cls-4" d="M49.84449,26.06138A.356.356,0,0,0,49.64359,26a.34623.34623,0,0,0-.17858.05022L40.1789,31.40737a.36061.36061,0,0,0-.17858.32924.35357.35357,0,0,0,.22323.30692l2.20433.904,5.96566-5.16182L43.5719,33.69531v1.94755a.35614.35614,0,0,0,.23439.33482A.31812.31812,0,0,0,43.92906,36a.34659.34659,0,0,0,.27345-.12835l1.3505-1.64621,2.528,1.03237a.38344.38344,0,0,0,.13394.0279.36248.36248,0,0,0,.173-.04464.35851.35851,0,0,0,.17859-.25111l1.42863-8.57143A.36156.36156,0,0,0,49.84449,26.06138Z"/>
        <path id="comment-o---FontAwesome" class="cls-5" d="M35,32.5A2.78268,2.78268,0,0,1,32,35a3.964,3.964,0,0,1-.48549-.03125,3.53334,3.53334,0,0,1-1.54018.94531A2.40379,2.40379,0,0,1,29.59263,36a.1672.1672,0,0,1-.16071-.14844c-.01674-.10156.04018-.16015.0904-.23047A2.56349,2.56349,0,0,0,30.1317,34.457,2.369,2.369,0,0,1,29,32.5,2.78268,2.78268,0,0,1,32,30,2.78268,2.78268,0,0,1,35,32.5Z"/>
        <path id="comment-o---FontAwesome-2" data-name="comment-o---FontAwesome" class="cls-5" d="M25,3.08333a2.3189,2.3189,0,0,1-2.5,2.08334,3.30238,3.30238,0,0,1-.40458-.026,2.94438,2.94438,0,0,1-1.28348.78777A2.00354,2.00354,0,0,1,20.49386,6a.13934.13934,0,0,1-.13393-.1237c-.01395-.08463.03349-.13346.07534-.19206a2.13626,2.13626,0,0,0,.50781-.97A1.97415,1.97415,0,0,1,20,3.08333,2.3189,2.3189,0,0,1,22.5,1,2.3189,2.3189,0,0,1,25,3.08333Z"/>
        <path id="comment-o---FontAwesome-3" data-name="comment-o---FontAwesome" class="cls-5" d="M40,4.08333a2.3189,2.3189,0,0,1-2.5,2.08334,3.30238,3.30238,0,0,1-.40458-.026,2.94438,2.94438,0,0,1-1.28348.78777A2.00379,2.00379,0,0,1,35.49386,7a.13934.13934,0,0,1-.13393-.1237c-.014-.08463.03348-.13346.07534-.19206a2.13626,2.13626,0,0,0,.50781-.97A1.97417,1.97417,0,0,1,35,4.08333,2.3189,2.3189,0,0,1,37.5,2,2.3189,2.3189,0,0,1,40,4.08333Z"/>
        <path id="comment-o---FontAwesome-4" data-name="comment-o---FontAwesome" class="cls-5" d="M17,31.66667a1.85512,1.85512,0,0,1-2,1.66666,2.64257,2.64257,0,0,1-.32366-.02083,2.35565,2.35565,0,0,1-1.02679.63021A1.60244,1.60244,0,0,1,13.39509,34a.11147.11147,0,0,1-.10714-.099c-.01116-.06771.02678-.10677.06026-.15365a1.70888,1.70888,0,0,0,.40625-.776A1.57934,1.57934,0,0,1,13,31.66667,1.85512,1.85512,0,0,1,15,30,1.85512,1.85512,0,0,1,17,31.66667Z"/>
        <path id="comment-o---FontAwesome-5" data-name="comment-o---FontAwesome" class="cls-5" d="M52,19.5A2.78268,2.78268,0,0,1,49,22a3.964,3.964,0,0,1-.48549-.03125,3.53334,3.53334,0,0,1-1.54018.94531A2.404,2.404,0,0,1,46.59263,23h-.01674a.16555.16555,0,0,1-.144-.14844v-.0039c-.01674-.09766.04018-.15625.0904-.22657a2.5634,2.5634,0,0,0,.60937-1.16406A2.369,2.369,0,0,1,46,19.5a3.05,3.05,0,0,1,6,0Z"/>
        <path id="_" data-name="@" class="cls-4" d="M6,10c3.09545,0,5.98636,1.92428,6,5.79955,0,1.79065-.81818,3.42094-2.44091,3.42094a2.13767,2.13767,0,0,1-1.88182-1.029,2.20385,2.20385,0,0,1-2.07272,1.029,2.96148,2.96148,0,0,1-2.93182-3.20713,3.04077,3.04077,0,0,1,2.93182-3.20712,2.18274,2.18274,0,0,1,1.78636.81514h.21818l.23182-.74833h.79091v4.4098a.91489.91489,0,0,0,.95454.89532c.99546,0,1.22728-1.30957,1.22728-2.37862A4.53625,4.53625,0,0,0,6,10.98886a4.82787,4.82787,0,0,0-4.81364,5.05123,4.77744,4.77744,0,0,0,4.86819,4.97105,5.85579,5.85579,0,0,0,2.68636-.65479l.69545.69488A6.58464,6.58464,0,0,1,6.05455,22,6.00012,6.00012,0,1,1,6,10Zm-.32727,8.12472a1.75586,1.75586,0,0,0,1.8-1.97773c0-1.51-.83182-2.245-1.8-2.245a1.999,1.999,0,0,0-1.8,2.11136A1.91142,1.91142,0,0,0,5.67273,18.12472Z"/>
        <path id="paperclip---FontAwesome" class="cls-4" d="M51.9826,9.18254a2.31578,2.31578,0,0,0-.51341-1.75477L47.78426,2.88154a1.475,1.475,0,1,0-2.29337,1.85538l2.60038,3.20819a.22427.22427,0,0,0,.15028.08572,1.08885,1.08885,0,0,0,.63434-.51319A.22377.22377,0,0,0,48.8232,7.353L46.22281,4.14478a.6125.6125,0,0,1-.12813-.44049.49493.49493,0,0,1,.54488-.44082.62463.62463,0,0,1,.41277.21021l3.68494,4.54623a1.45047,1.45047,0,0,1,.32618,1.08354,1.09372,1.09372,0,0,1-1.20362.97375,1.46611,1.46611,0,0,1-.993-.544l-4.53641-5.605A1.77985,1.77985,0,0,1,43.946,2.58172,1.91833,1.91833,0,0,1,46.01163.91056a1.80752,1.80752,0,0,1,1.23425.65887L50.69457,5.8325a.22751.22751,0,0,0,.15752.08635,1.0621,1.0621,0,0,0,.6262-.50661.22377.22377,0,0,0-.05269-.16468L47.98228.99111A2.7153,2.7153,0,0,0,46.11037.01069,2.867,2.867,0,0,0,43.02,2.51085a2.72974,2.72974,0,0,0,.57883,2.02654l4.536,5.58792a2.34931,2.34931,0,0,0,1.6113.86655A2.05012,2.05012,0,0,0,51.9826,9.18254Z"/>
      </g>
    </g>
  </g>
</svg>
