<?xml version="1.0" encoding="UTF-8"?>
<svg width="49px" height="45px" viewBox="0 0 49 45" version="1.1" xmlns="http://www.w3.org/2000/svg" xmlns:xlink="http://www.w3.org/1999/xlink">
    <!-- Generator: Sketch 46.2 (44496) - http://www.bohemiancoding.com/sketch -->
    <title>gitlab</title>
    <desc>Created with Sketch.</desc>
    <defs></defs>
    <g id="Connect-Buttons" stroke="none" stroke-width="1" fill="none" fill-rule="evenodd">
        <g id="Gitlab-Button" transform="translate(-91.000000, -28.000000)">
            <rect id="bg" fill="#FFFFFF" x="0" y="0" width="231" height="100"></rect>
            <path d="M93.8502041,45.3223754 L115.5,73 L91.7726984,55.8207847 C91.116644,55.32995 90.843288,54.4846235 91.0893084,53.7211029 L93.8502041,45.3223754 Z M106.479252,45.3223754 L124.520748,45.3223754 L115.5,73 L106.479252,45.3223754 Z M101.066803,28.6339948 C100.766111,27.7886684 99.5633447,27.7886684 99.2626531,28.6339948 L93.8502041,45.3223754 L106.479252,45.3223754 L101.066803,28.6339948 Z M137.149796,45.3223754 L139.910692,53.7211029 C140.156712,54.4846235 139.883356,55.32995 139.227302,55.8207847 L115.5,73 L137.149796,45.3223754 Z M137.149796,45.3223754 L131.737347,28.6339948 C131.436655,27.7886684 130.233889,27.7886684 129.933197,28.6339948 L124.520748,45.3223754 L137.149796,45.3223754 Z" id="gitlab---FontAwesome" fill="#FCA326"></path>
        </g>
    </g>
</svg>