<?xml version="1.0" encoding="utf-8"?>
<!-- Generator: Adobe Illustrator 22.1.0, SVG Export Plug-In . SVG Version: 6.00 Build 0)  -->
<svg version="1.1" id="Layer_1" xmlns="http://www.w3.org/2000/svg" xmlns:xlink="http://www.w3.org/1999/xlink" x="0px" y="0px"
	 viewBox="0 0 52 36" style="enable-background:new 0 0 52 36;" xml:space="preserve">
<title>Contact Us</title>
<g>
	<g>
		<path id="envelope" d="M41.5,13v-2.5l-10,6.3l-10-6.3V13l10,6.2L41.5,13z M41.5,8c0.7,0,1.3,0.3,1.7,0.7c0.5,0.5,0.7,1.1,0.7,1.8
			v15c0,0.7-0.3,1.3-0.7,1.8c-0.4,0.5-1.1,0.8-1.7,0.7H21.5c-0.7,0-1.3-0.3-1.7-0.7c-0.5-0.5-0.7-1.1-0.7-1.8v-15
			c0-0.7,0.3-1.3,0.7-1.8C20.2,8.3,20.8,8,21.5,8L41.5,8z"/>
	</g>
	<g>
		<path id="line-1" d="M14,28h4"/>
		<path id="line-2" d="M9,26h1"/>
		<path id="line-3" d="M12,26h5"/>
		<path id="line-4" d="M12,23h5"/>
	</g>
	<g>
		<path id="line-5" d="M40,23h4"/>
		<path id="line-6" d="M41,25h3"/>
		<path id="line-7" d="M38,25h1"/>
		<path id="line-8" d="M34,27h1"/>
		<path id="line-9" d="M37,27h9"/>
	</g>
	<g>
		<path id="line-10" d="M14,8h4"/>
		<path id="line-11" d="M10,8h2"/>
		<path id="line-12" d="M13,10h4"/>
	</g>
	<g>
		<path id="paper-plane" d="M49.8,26.1c-0.1,0-0.1-0.1-0.2-0.1c-0.1,0-0.1,0-0.2,0.1l-9.3,5.4c-0.1,0.1-0.2,0.2-0.2,0.3
			c0,0.1,0.1,0.3,0.2,0.3l2.2,0.9l6-5.2l-4.8,5.9v1.9c0,0.1,0.1,0.3,0.2,0.3c0,0,0.1,0,0.1,0c0.1,0,0.2,0,0.3-0.1l1.4-1.6l2.5,1
			c0,0,0.1,0,0.1,0c0.1,0,0.1,0,0.2,0c0.1-0.1,0.2-0.1,0.2-0.3l1.4-8.6C50,26.3,50,26.1,49.8,26.1z"/>
	</g>
	<g>
		<path id="comment_4_" d="M35,32.5c0,1.4-1.3,2.5-3,2.5c-0.2,0-0.3,0-0.5,0c-0.4,0.5-1,0.8-1.5,0.9c-0.1,0-0.3,0.1-0.4,0.1
			c-0.1,0-0.1-0.1-0.2-0.1c0-0.1,0-0.2,0.1-0.2c0.2-0.3,0.5-0.5,0.6-1.2c-0.7-0.5-1.1-1.2-1.1-2c0-1.4,1.3-2.5,3-2.5
			C33.7,30,35,31.1,35,32.5z"/>
	</g>
	<g>
		<path id="comment_3_" d="M25,3.1c0,1.2-1.1,2.1-2.5,2.1c-0.1,0-0.3,0-0.4,0c-0.4,0.4-0.8,0.6-1.3,0.8C20.7,6,20.6,6,20.5,6
			c-0.1,0-0.1-0.1-0.1-0.1c0-0.1,0-0.1,0.1-0.2c0.2-0.2,0.4-0.4,0.5-1c-0.6-0.4-0.9-1-0.9-1.6C20,1.9,21.1,1,22.5,1S25,1.9,25,3.1z"
			/>
	</g>
	<g>
		<path id="comment_2_" d="M40,4.1c0,1.2-1.1,2.1-2.5,2.1c-0.1,0-0.3,0-0.4,0c-0.4,0.4-0.8,0.6-1.3,0.8C35.7,7,35.6,7,35.5,7
			c-0.1,0-0.1-0.1-0.1-0.1c0-0.1,0-0.1,0.1-0.2c0.2-0.2,0.4-0.4,0.5-1c-0.6-0.4-0.9-1-0.9-1.6C35,2.9,36.1,2,37.5,2S40,2.9,40,4.1z"
			/>
	</g>
	<g>
		<path id="comment_1_" d="M17,31.7c0,0.9-0.9,1.7-2,1.7c-0.1,0-0.2,0-0.3,0c-0.3,0.3-0.6,0.5-1,0.6c-0.1,0-0.2,0-0.3,0.1
			c-0.1,0-0.1,0-0.1-0.1c0-0.1,0-0.1,0.1-0.2c0.1-0.2,0.3-0.3,0.4-0.8c-0.5-0.3-0.8-0.8-0.8-1.3c0-0.9,0.9-1.7,2-1.7
			S17,30.7,17,31.7z"/>
	</g>
	<g>
		<path id="comment" d="M52,19.5c0,1.4-1.3,2.5-3,2.5c-0.2,0-0.3,0-0.5,0c-0.4,0.5-1,0.8-1.5,0.9c-0.1,0-0.3,0.1-0.4,0.1h0
			c-0.1,0-0.1-0.1-0.1-0.1v0c0-0.1,0-0.2,0.1-0.2c0.2-0.3,0.5-0.5,0.6-1.2c-0.7-0.5-1.1-1.2-1.1-2c0-1.4,1.3-2.5,3-2.5
			S52,18.1,52,19.5z"/>
	</g>
	<g>
		<path id="atSymbol" d="M6,10c3.1,0,6,1.9,6,5.8c0,1.8-0.8,3.4-2.4,3.4c-0.6,0-1.5-0.3-1.9-1c-0.4,0.6-1,1-2.1,1
			C4,19.2,2.7,18,2.7,16c0-1.9,1.4-3.2,2.9-3.2c0.8,0,1.4,0.3,1.8,0.8h0.2l0.2-0.7h0.8v4.4c0,0.5,0.4,0.9,1,0.9c1,0,1.2-1.3,1.2-2.4
			c0-3.2-2.2-4.8-4.8-4.8c-2.5,0-4.8,1.9-4.8,5.1s2.3,5,4.9,5c0.9,0,1.9-0.2,2.7-0.7l0.7,0.7c-1,0.6-2.2,0.9-3.4,0.9
			c-3,0-6.1-2.2-6.1-6C0,12.2,3,10,6,10z M5.7,18.1c1,0,1.8-0.6,1.8-2c0-1.5-0.8-2.2-1.8-2.2c-0.8,0-1.8,0.8-1.8,2.1
			C3.9,17.5,4.9,18.1,5.7,18.1z"/>
	</g>
	<g>
		<path id="paperclip" d="M52,9.2c0.1-0.6-0.1-1.3-0.5-1.8l-3.7-4.5c-0.5-0.6-1.4-0.7-2.1-0.2c-0.6,0.5-0.7,1.4-0.2,2.1c0,0,0,0,0,0
			l2.6,3.2c0,0,0.1,0.1,0.2,0.1c0.3-0.1,0.5-0.3,0.6-0.5c0-0.1,0-0.1-0.1-0.2l-2.6-3.2c-0.1-0.1-0.1-0.3-0.1-0.4
			c0-0.3,0.3-0.5,0.5-0.4c0,0,0,0,0,0c0.2,0,0.3,0.1,0.4,0.2L50.7,8c0.3,0.3,0.4,0.7,0.3,1.1c-0.1,0.6-0.6,1-1.2,1c0,0,0,0,0,0
			c-0.4,0-0.7-0.2-1-0.5l-4.5-5.6c-0.3-0.4-0.4-0.9-0.4-1.3c0.1-1,1-1.8,2.1-1.7c0.5,0,0.9,0.3,1.2,0.7l3.4,4.3c0,0,0.1,0.1,0.2,0.1
			c0.3-0.1,0.5-0.3,0.6-0.5c0-0.1,0-0.1-0.1-0.2L48,1c-0.5-0.6-1.1-0.9-1.9-1c-1.5-0.1-2.9,1-3.1,2.5c-0.1,0.7,0.1,1.5,0.6,2
			l4.5,5.6c0.4,0.5,1,0.8,1.6,0.9C50.9,11.1,51.9,10.3,52,9.2z"/>
	</g>
</g>
</svg>
